<svg version="1.1" xmlns="http://www.w3.org/2000/svg" xmlns:xlink="http://www.w3.org/1999/xlink" width="711" height="628"><defs/><g><text fill="#eeeeee" stroke="none" font-family="Arial" font-size="24px" font-style="normal" font-weight="normal" text-decoration="none" x="0" y="0"></text><text fill="#eeeeee" stroke="none" font-family="Arial" font-size="24px" font-style="normal" font-weight="normal" text-decoration="none" x="0" y="30"></text><text fill="#eeeeee" stroke="none" font-family="Arial" font-size="24px" font-style="normal" font-weight="normal" text-decoration="none" x="0" y="60"></text><text fill="#eeeeee" stroke="none" font-family="Arial" font-size="24px" font-style="normal" font-weight="normal" text-decoration="none" x="0" y="90"></text><text fill="#eeeeee" stroke="none" font-family="Arial" font-size="24px" font-style="normal" font-weight="normal" text-decoration="none" x="0" y="120"></text><text fill="#eeeeee" stroke="none" font-family="Arial" font-size="24px" font-style="normal" font-weight="normal" text-decoration="none" x="0" y="150"></text><text fill="#eeeeee" stroke="none" font-family="Arial" font-size="24px" font-style="normal" font-weight="normal" text-decoration="none" x="0" y="180"></text><text fill="#eeeeee" stroke="none" font-family="Arial" font-size="24px" font-style="normal" font-weight="normal" text-decoration="none" x="0" y="210"></text><text fill="#eeeeee" stroke="none" font-family="Arial" font-size="24px" font-style="normal" font-weight="normal" text-decoration="none" x="0" y="240"></text><text fill="#eeeeee" stroke="none" font-family="Arial" font-size="24px" font-style="normal" font-weight="normal" text-decoration="none" x="0" y="270"></text><text fill="#eeeeee" stroke="none" font-family="Arial" font-size="24px" font-style="normal" font-weight="normal" text-decoration="none" x="0" y="300"></text><text fill="#eeeeee" stroke="none" font-family="Arial" font-size="24px" font-style="normal" font-weight="normal" text-decoration="none" x="0" y="330"></text><text fill="#eeeeee" stroke="none" font-family="Arial" font-size="24px" font-style="normal" font-weight="normal" text-decoration="none" x="0" y="360"></text><text fill="#eeeeee" stroke="none" font-family="Arial" font-size="24px" font-style="normal" font-weight="normal" text-decoration="none" x="0" y="390"></text><text fill="#eeeeee" stroke="none" font-family="Arial" font-size="24px" font-style="normal" font-weight="normal" text-decoration="none" x="0" y="420"></text><text fill="#eeeeee" stroke="none" font-family="Arial" font-size="24px" font-style="normal" font-weight="normal" text-decoration="none" x="0" y="450"></text><text fill="#eeeeee" stroke="none" font-family="Arial" font-size="24px" font-style="normal" font-weight="normal" text-decoration="none" x="0" y="480"></text><text fill="#eeeeee" stroke="none" font-family="Arial" font-size="24px" font-style="normal" font-weight="normal" text-decoration="none" x="0" y="510"></text><text fill="#eeeeee" stroke="none" font-family="Arial" font-size="24px" font-style="normal" font-weight="normal" text-decoration="none" x="0" y="540"></text><text fill="#eeeeee" stroke="none" font-family="Arial" font-size="24px" font-style="normal" font-weight="normal" text-decoration="none" x="0" y="570"></text><text fill="#eeeeee" stroke="none" font-family="Arial" font-size="24px" font-style="normal" font-weight="normal" text-decoration="none" x="0" y="600"></text><text fill="#eeeeee" stroke="none" font-family="Arial" font-size="24px" font-style="normal" font-weight="normal" text-decoration="none" x="200" y="0"></text><text fill="#eeeeee" stroke="none" font-family="Arial" font-size="24px" font-style="normal" font-weight="normal" text-decoration="none" x="200" y="30"></text><text fill="#eeeeee" stroke="none" font-family="Arial" font-size="24px" font-style="normal" font-weight="normal" text-decoration="none" x="200" y="60"></text><text fill="#eeeeee" stroke="none" font-family="Arial" font-size="24px" font-style="normal" font-weight="normal" text-decoration="none" x="200" y="90"></text><text fill="#eeeeee" stroke="none" font-family="Arial" font-size="24px" font-style="normal" font-weight="normal" text-decoration="none" x="200" y="120"></text><text fill="#eeeeee" stroke="none" font-family="Arial" font-size="24px" font-style="normal" font-weight="normal" text-decoration="none" x="200" y="150"></text><text fill="#eeeeee" stroke="none" font-family="Arial" font-size="24px" font-style="normal" font-weight="normal" text-decoration="none" x="200" y="180"></text><text fill="#eeeeee" stroke="none" font-family="Arial" font-size="24px" font-style="normal" font-weight="normal" text-decoration="none" x="200" y="210"></text><text fill="#eeeeee" stroke="none" font-family="Arial" font-size="24px" font-style="normal" font-weight="normal" text-decoration="none" x="200" y="240"></text><text fill="#eeeeee" stroke="none" font-family="Arial" font-size="24px" font-style="normal" font-weight="normal" text-decoration="none" x="200" y="270"></text><text fill="#eeeeee" stroke="none" font-family="Arial" font-size="24px" font-style="normal" font-weight="normal" text-decoration="none" x="200" y="300"></text><text fill="#eeeeee" stroke="none" font-family="Arial" font-size="24px" font-style="normal" font-weight="normal" text-decoration="none" x="200" y="330"></text><text fill="#eeeeee" stroke="none" font-family="Arial" font-size="24px" font-style="normal" font-weight="normal" text-decoration="none" x="200" y="360"></text><text fill="#eeeeee" stroke="none" font-family="Arial" font-size="24px" font-style="normal" font-weight="normal" text-decoration="none" x="200" y="390"></text><text fill="#eeeeee" stroke="none" font-family="Arial" font-size="24px" font-style="normal" font-weight="normal" text-decoration="none" x="200" y="420"></text><text fill="#eeeeee" stroke="none" font-family="Arial" font-size="24px" font-style="normal" font-weight="normal" text-decoration="none" x="200" y="450"></text><text fill="#eeeeee" stroke="none" font-family="Arial" font-size="24px" font-style="normal" font-weight="normal" text-decoration="none" x="200" y="480"></text><text fill="#eeeeee" stroke="none" font-family="Arial" font-size="24px" font-style="normal" font-weight="normal" text-decoration="none" x="200" y="510"></text><text fill="#eeeeee" stroke="none" font-family="Arial" font-size="24px" font-style="normal" font-weight="normal" text-decoration="none" x="200" y="540"></text><text fill="#eeeeee" stroke="none" font-family="Arial" font-size="24px" font-style="normal" font-weight="normal" text-decoration="none" x="200" y="570"></text><text fill="#eeeeee" stroke="none" font-family="Arial" font-size="24px" font-style="normal" font-weight="normal" text-decoration="none" x="200" y="600"></text><text fill="#eeeeee" stroke="none" font-family="Arial" font-size="24px" font-style="normal" font-weight="normal" text-decoration="none" x="400" y="0"></text><text fill="#eeeeee" stroke="none" font-family="Arial" font-size="24px" font-style="normal" font-weight="normal" text-decoration="none" x="400" y="30"></text><text fill="#eeeeee" stroke="none" font-family="Arial" font-size="24px" font-style="normal" font-weight="normal" text-decoration="none" x="400" y="60"></text><text fill="#eeeeee" stroke="none" font-family="Arial" font-size="24px" font-style="normal" font-weight="normal" text-decoration="none" x="400" y="90"></text><text fill="#eeeeee" stroke="none" font-family="Arial" font-size="24px" font-style="normal" font-weight="normal" text-decoration="none" x="400" y="120"></text><text fill="#eeeeee" stroke="none" font-family="Arial" font-size="24px" font-style="normal" font-weight="normal" text-decoration="none" x="400" y="150"></text><text fill="#eeeeee" stroke="none" font-family="Arial" font-size="24px" font-style="normal" font-weight="normal" text-decoration="none" x="400" y="180"></text><text fill="#eeeeee" stroke="none" font-family="Arial" font-size="24px" font-style="normal" font-weight="normal" text-decoration="none" x="400" y="210"></text><text fill="#eeeeee" stroke="none" font-family="Arial" font-size="24px" font-style="normal" font-weight="normal" text-decoration="none" x="400" y="240"></text><text fill="#eeeeee" stroke="none" font-family="Arial" font-size="24px" font-style="normal" font-weight="normal" text-decoration="none" x="400" y="270"></text><text fill="#eeeeee" stroke="none" font-family="Arial" font-size="24px" font-style="normal" font-weight="normal" text-decoration="none" x="400" y="300"></text><text fill="#eeeeee" stroke="none" font-family="Arial" font-size="24px" font-style="normal" font-weight="normal" text-decoration="none" x="400" y="330"></text><text fill="#eeeeee" stroke="none" font-family="Arial" font-size="24px" font-style="normal" font-weight="normal" text-decoration="none" x="400" y="360"></text><text fill="#eeeeee" stroke="none" font-family="Arial" font-size="24px" font-style="normal" font-weight="normal" text-decoration="none" x="400" y="390"></text><text fill="#eeeeee" stroke="none" font-family="Arial" font-size="24px" font-style="normal" font-weight="normal" text-decoration="none" x="400" y="420"></text><text fill="#eeeeee" stroke="none" font-family="Arial" font-size="24px" font-style="normal" font-weight="normal" text-decoration="none" x="400" y="450"></text><text fill="#eeeeee" stroke="none" font-family="Arial" font-size="24px" font-style="normal" font-weight="normal" text-decoration="none" x="400" y="480"></text><text fill="#eeeeee" stroke="none" font-family="Arial" font-size="24px" font-style="normal" font-weight="normal" text-decoration="none" x="400" y="510"></text><text fill="#eeeeee" stroke="none" font-family="Arial" font-size="24px" font-style="normal" font-weight="normal" text-decoration="none" x="400" y="540"></text><text fill="#eeeeee" stroke="none" font-family="Arial" font-size="24px" font-style="normal" font-weight="normal" text-decoration="none" x="400" y="570"></text><text fill="#eeeeee" stroke="none" font-family="Arial" font-size="24px" font-style="normal" font-weight="normal" text-decoration="none" x="400" y="600"></text><text fill="#eeeeee" stroke="none" font-family="Arial" font-size="24px" font-style="normal" font-weight="normal" text-decoration="none" x="600" y="0"></text><text fill="#eeeeee" stroke="none" font-family="Arial" font-size="24px" font-style="normal" font-weight="normal" text-decoration="none" x="600" y="30"></text><text fill="#eeeeee" stroke="none" font-family="Arial" font-size="24px" font-style="normal" font-weight="normal" text-decoration="none" x="600" y="60"></text><text fill="#eeeeee" stroke="none" font-family="Arial" font-size="24px" font-style="normal" font-weight="normal" text-decoration="none" x="600" y="90"></text><text fill="#eeeeee" stroke="none" font-family="Arial" font-size="24px" font-style="normal" font-weight="normal" text-decoration="none" x="600" y="120"></text><text fill="#eeeeee" stroke="none" font-family="Arial" font-size="24px" font-style="normal" font-weight="normal" text-decoration="none" x="600" y="150"></text><text fill="#eeeeee" stroke="none" font-family="Arial" font-size="24px" font-style="normal" font-weight="normal" text-decoration="none" x="600" y="180"></text><text fill="#eeeeee" stroke="none" font-family="Arial" font-size="24px" font-style="normal" font-weight="normal" text-decoration="none" x="600" y="210"></text><text fill="#eeeeee" stroke="none" font-family="Arial" font-size="24px" font-style="normal" font-weight="normal" text-decoration="none" x="600" y="240"></text><text fill="#eeeeee" stroke="none" font-family="Arial" font-size="24px" font-style="normal" font-weight="normal" text-decoration="none" x="600" y="270"></text><text fill="#eeeeee" stroke="none" font-family="Arial" font-size="24px" font-style="normal" font-weight="normal" text-decoration="none" x="600" y="300"></text><text fill="#eeeeee" stroke="none" font-family="Arial" font-size="24px" font-style="normal" font-weight="normal" text-decoration="none" x="600" y="330"></text><text fill="#eeeeee" stroke="none" font-family="Arial" font-size="24px" font-style="normal" font-weight="normal" text-decoration="none" x="600" y="360"></text><text fill="#eeeeee" stroke="none" font-family="Arial" font-size="24px" font-style="normal" font-weight="normal" text-decoration="none" x="600" y="390"></text><text fill="#eeeeee" stroke="none" font-family="Arial" font-size="24px" font-style="normal" font-weight="normal" text-decoration="none" x="600" y="420"></text><text fill="#eeeeee" stroke="none" font-family="Arial" font-size="24px" font-style="normal" font-weight="normal" text-decoration="none" x="600" y="450"></text><text fill="#eeeeee" stroke="none" font-family="Arial" font-size="24px" font-style="normal" font-weight="normal" text-decoration="none" x="600" y="480"></text><text fill="#eeeeee" stroke="none" font-family="Arial" font-size="24px" font-style="normal" font-weight="normal" text-decoration="none" x="600" y="510"></text><text fill="#eeeeee" stroke="none" font-family="Arial" font-size="24px" font-style="normal" font-weight="normal" text-decoration="none" x="600" y="540"></text><text fill="#eeeeee" stroke="none" font-family="Arial" font-size="24px" font-style="normal" font-weight="normal" text-decoration="none" x="600" y="570"></text><text fill="#eeeeee" stroke="none" font-family="Arial" font-size="24px" font-style="normal" font-weight="normal" text-decoration="none" x="600" y="600"></text><g transform="translate(-78,10) scale(1,1)"><path fill="none" stroke="#000000" d="M 88 0 L 779 0 L 779 591 L 88 591 L 88 0" stroke-miterlimit="10"/></g><g transform="translate(-78,10) scale(1,1)"><path fill="#ffffff" stroke="none" d="M 88 0 L 88 22 L 539.01123046875 22 L 550.01123046875 11 L 550.01123046875 0 L 88 0"/></g><g transform="translate(-78,10) scale(1,1)"><path fill="none" stroke="#000000" d="M 88 0 L 88 22 L 539.01123046875 22 L 550.01123046875 11 L 550.01123046875 0 L 88 0 L 88 0" stroke-miterlimit="10"/></g><g transform="translate(-78,10) scale(1,1)"><g><path fill="none" stroke="none"/><text fill="#000000" stroke="none" font-family="Arial" font-size="13px" font-style="normal" font-weight="normal" text-decoration="none" x="112.72998046875" y="15.5">Diagramme de séquence systéme  de recherche  de projet de recherche </text></g></g><g transform="translate(-78,10) scale(1,1)"><g><path fill="none" stroke="none"/><text fill="#000000" stroke="none" font-family="Arial" font-size="13px" font-style="normal" font-weight="bold" text-decoration="none" x="92.279541015625" y="15.5">sd</text></g></g><g transform="translate(-78,10) scale(1,1)"><path fill="#ffffff" stroke="none" d="M 176.9981551846591 47.3 C 176.9981551846591 43.82060576 179.8765569068409 41 183.42724609375 41 C 186.9779352806591 41 189.85633700284092 43.82060576 189.85633700284092 47.3 C 189.85633700284092 50.779394239999995 186.9779352806591 53.6 183.42724609375 53.6 C 179.8765569068409 53.6 176.9981551846591 50.779394239999995 176.9981551846591 47.3 Z"/></g><g transform="translate(-78,10) scale(1,1)"><path fill="none" stroke="#000000" d="M 176.9981551846591 47.3 C 176.9981551846591 43.82060576 179.8765569068409 41 183.42724609375 41 C 186.9779352806591 41 189.85633700284092 43.82060576 189.85633700284092 47.3 C 189.85633700284092 50.779394239999995 186.9779352806591 53.6 183.42724609375 53.6 C 179.8765569068409 53.6 176.9981551846591 50.779394239999995 176.9981551846591 47.3 Z" stroke-miterlimit="10"/></g><g transform="translate(-78,10) scale(1,1)"><path fill="none" stroke="#000000" d="M 183.42724609375 53.6 L 183.42724609375 66.4" stroke-miterlimit="10"/></g><g transform="translate(-78,10) scale(1,1)"><path fill="none" stroke="#000000" d="M 176.6199733664773 58.4 L 190.23451882102273 58.4" stroke-miterlimit="10"/></g><g transform="translate(-78,10) scale(1,1)"><path fill="none" stroke="#000000" d="M 183.42724609375 66.4 L 173.97270063920456 79" stroke-miterlimit="10"/></g><g transform="translate(-78,10) scale(1,1)"><path fill="none" stroke="#000000" d="M 183.42724609375 66.4 L 192.88179154829547 79" stroke-miterlimit="10"/></g><g transform="translate(-78,10) scale(1,1)"><g><path fill="none" stroke="none"/><text fill="#000000" stroke="none" font-family="Arial" font-size="13px" font-style="normal" font-weight="bold" text-decoration="none" x="159.236328125" y="97.5">: Admin</text></g></g><g transform="translate(-78,10) scale(1,1)"><path fill="none" stroke="#000000" d="M 184.5 105 L 184.5 600" stroke-miterlimit="10" stroke-dasharray="3"/></g><g transform="translate(-78,10) scale(1,1)"><rect fill="#C0C0C0" stroke="none" x="479" y="47" width="277.67333984375" height="39" opacity="0.2"/></g><g transform="translate(-78,10) scale(1,1)"><rect fill="#ffffff" stroke="none" x="472" y="40" width="277.67333984375" height="39"/></g><g transform="translate(-78,10) scale(1,1)"><path fill="none" stroke="#000000" d="M 472 40 L 749.67333984375 40 L 749.67333984375 79 L 472 79 L 472 40 Z Z" stroke-miterlimit="10"/></g><g transform="translate(-78,10) scale(1,1)"><g><path fill="none" stroke="none"/><text fill="#000000" stroke="none" font-family="Arial" font-size="13px" font-style="normal" font-weight="bold" text-decoration="none" x="503.916748046875" y="57.5">aplication de gestion de recherche</text></g></g><g transform="translate(-78,10) scale(1,1)"><path fill="none" stroke="#000000" d="M 611.5 80 L 611.5 608" stroke-miterlimit="10" stroke-dasharray="3"/></g><g transform="translate(-78,10) scale(1,1)"><path fill="#ffffff" stroke="none" d="M 570.406005859375 96 L 650.593994140625 96 Q 660.593994140625 96 660.593994140625 106 L 660.593994140625 105 Q 660.593994140625 115 650.593994140625 115 L 570.406005859375 115 Q 560.406005859375 115 560.406005859375 105 L 560.406005859375 106 Q 560.406005859375 96 570.406005859375 96 Z"/></g><g transform="translate(-78,10) scale(1,1)"><path fill="none" stroke="#000000" d="M 570.406005859375 96 L 650.593994140625 96 Q 660.593994140625 96 660.593994140625 106 L 660.593994140625 105 Q 660.593994140625 115 650.593994140625 115 L 570.406005859375 115 Q 560.406005859375 115 560.406005859375 105 L 560.406005859375 106 Q 560.406005859375 96 570.406005859375 96 Z" stroke-miterlimit="10"/></g><g transform="translate(-78,10) scale(1,1)"><g><path fill="none" stroke="none"/><text fill="#000000" stroke="none" font-family="Arial" font-size="13px" font-style="normal" font-weight="normal" text-decoration="none" x="559.906005859375" y="110">{user authentifié }</text></g></g><g transform="translate(-78,10) scale(1,1)"><path fill="none" stroke="#000000" d="M 184 177 L 604 177" stroke-miterlimit="10"/></g><g transform="translate(-78,10) scale(1,1)"><path fill="#000000" stroke="none" d="M 593.8373251423759 181.209517756016 L 604 177 L 593.8373251423758 172.790482243984"/></g><g transform="translate(-78,10) scale(1,1)"><path fill="none" stroke="#000000" d="M 593.8373251423759 181.209517756016 L 604 177 L 593.8373251423758 172.790482243984 L 593.8373251423759 181.209517756016" stroke-miterlimit="10"/></g><g transform="translate(-78,10) scale(1,1)"><g><path fill="none" stroke="none"/><text fill="#000000" stroke="none" font-family="Arial" font-size="13px" font-style="normal" font-weight="normal" text-decoration="none" x="208.5" y="171.5">1 : Acceder vers la page de recherche de projet de de recherche</text></g></g><g transform="translate(-78,10) scale(1,1)"><rect fill="#ffffff" stroke="none" x="604" y="177" width="13" height="28"/></g><g transform="translate(-78,10) scale(1,1)"><path fill="none" stroke="#000000" d="M 604 177 L 617 177 L 617 205 L 604 205 L 604 177 Z Z" stroke-miterlimit="10"/></g><g transform="translate(-78,10) scale(1,1)"><path fill="none" stroke="#000000" d="M 611 216 L 184 216" stroke-miterlimit="10" stroke-dasharray="3"/></g><g transform="translate(-78,10) scale(1,1)"><path fill="none" stroke="#000000" d="M 194.16267485762415 211.790482243984 L 184 216 L 194.16267485762415 220.209517756016" stroke-miterlimit="10"/></g><g transform="translate(-78,10) scale(1,1)"><g><path fill="none" stroke="none"/><text fill="#000000" stroke="none" font-family="Arial" font-size="13px" font-style="normal" font-weight="normal" text-decoration="none" x="280.4482421875" y="230.5">2 : Affichage du formulaire de recherche</text></g></g><g transform="translate(-78,10) scale(1,1)"><path fill="none" stroke="#000000" d="M 184 258 L 604 258" stroke-miterlimit="10"/></g><g transform="translate(-78,10) scale(1,1)"><path fill="#000000" stroke="none" d="M 593.8373251423759 262.209517756016 L 604 258 L 593.8373251423758 253.790482243984"/></g><g transform="translate(-78,10) scale(1,1)"><path fill="none" stroke="#000000" d="M 593.8373251423759 262.209517756016 L 604 258 L 593.8373251423758 253.790482243984 L 593.8373251423759 262.209517756016" stroke-miterlimit="10"/></g><g transform="translate(-78,10) scale(1,1)"><g><path fill="none" stroke="none"/><text fill="#000000" stroke="none" font-family="Arial" font-size="13px" font-style="normal" font-weight="normal" text-decoration="none" x="256.5" y="252.5">3 : 2- Reremplissage le formulaire de recherche</text></g></g><g transform="translate(-78,10) scale(1,1)"><rect fill="#ffffff" stroke="none" x="604" y="258" width="13" height="28"/></g><g transform="translate(-78,10) scale(1,1)"><path fill="none" stroke="#000000" d="M 604 258 L 617 258 L 617 286 L 604 286 L 604 258 Z Z" stroke-miterlimit="10"/></g><g transform="translate(-78,10) scale(1,1)"><path fill="none" stroke="#000000" d="M 184 304 L 604 304" stroke-miterlimit="10"/></g><g transform="translate(-78,10) scale(1,1)"><path fill="#000000" stroke="none" d="M 593.8373251423759 308.209517756016 L 604 304 L 593.8373251423758 299.790482243984"/></g><g transform="translate(-78,10) scale(1,1)"><path fill="none" stroke="#000000" d="M 593.8373251423759 308.209517756016 L 604 304 L 593.8373251423758 299.790482243984 L 593.8373251423759 308.209517756016" stroke-miterlimit="10"/></g><g transform="translate(-78,10) scale(1,1)"><g><path fill="none" stroke="none"/><text fill="#000000" stroke="none" font-family="Arial" font-size="13px" font-style="normal" font-weight="normal" text-decoration="none" x="267.5" y="289.5">4 : Appuyer sur le bouton rechercher</text></g></g><g transform="translate(-78,10) scale(1,1)"><rect fill="#ffffff" stroke="none" x="604" y="304" width="13" height="28"/></g><g transform="translate(-78,10) scale(1,1)"><path fill="none" stroke="#000000" d="M 604 304 L 617 304 L 617 332 L 604 332 L 604 304 Z Z" stroke-miterlimit="10"/></g><g transform="translate(-78,10) scale(1,1)"><path fill="none" stroke="#000000" d="M 611 408 L 184 408" stroke-miterlimit="10" stroke-dasharray="3"/></g><g transform="translate(-78,10) scale(1,1)"><path fill="none" stroke="#000000" d="M 194.16267485762415 403.790482243984 L 184 408 L 194.16267485762415 412.209517756016" stroke-miterlimit="10"/></g><g transform="translate(-78,10) scale(1,1)"><g><path fill="none" stroke="none"/><text fill="#000000" stroke="none" font-family="Arial" font-size="13px" font-style="normal" font-weight="normal" text-decoration="none" x="335.548583984375" y="422.5">5 : Afficher la resultat</text></g></g><g transform="translate(-78,10) scale(1,1)"><path fill="none" stroke="#000000" d="M 611 525 L 184 525" stroke-miterlimit="10" stroke-dasharray="3"/></g><g transform="translate(-78,10) scale(1,1)"><path fill="none" stroke="#000000" d="M 194.16267485762415 520.790482243984 L 184 525 L 194.16267485762415 529.209517756016" stroke-miterlimit="10"/></g><g transform="translate(-78,10) scale(1,1)"><g><path fill="none" stroke="none"/><text fill="#000000" stroke="none" font-family="Arial" font-size="13px" font-style="normal" font-weight="normal" text-decoration="none" x="320.5" y="539.5">6 : Afficher aucunr resultat</text></g></g><g transform="translate(-78,10) scale(1,1)"><path fill="none" stroke="#000000" d="M 104 336 L 728 336 L 728 576 L 104 576 L 104 336" stroke-miterlimit="10"/></g><g transform="translate(-78,10) scale(1,1)"><path fill="#ffffff" stroke="none" d="M 104 336 L 104 358 L 255.8525390625 358 L 266.8525390625 347 L 266.8525390625 336 L 104 336"/></g><g transform="translate(-78,10) scale(1,1)"><path fill="none" stroke="#000000" d="M 104 336 L 104 358 L 255.8525390625 358 L 266.8525390625 347 L 266.8525390625 336 L 104 336 L 104 336" stroke-miterlimit="10"/></g><g transform="translate(-78,10) scale(1,1)"><g><path fill="none" stroke="none"/><text fill="#000000" stroke="none" font-family="Arial" font-size="13px" font-style="normal" font-weight="normal" text-decoration="none" x="128.72998046875" y="351.5">resultat du recherche</text></g></g><g transform="translate(-78,10) scale(1,1)"><g><path fill="none" stroke="none"/><text fill="#000000" stroke="none" font-family="Arial" font-size="13px" font-style="normal" font-weight="bold" text-decoration="none" x="108.279541015625" y="351.5">alt</text></g></g><g transform="translate(-78,10) scale(1,1)"><g><path fill="none" stroke="none"/><text fill="#000000" stroke="none" font-family="Arial" font-size="13px" font-style="normal" font-weight="normal" text-decoration="none" x="123.5" y="384.5">[recherche trouvé]</text></g></g><g transform="translate(-78,10) scale(1,1)"><path fill="none" stroke="#000000" d="M 104 465 L 728 465" stroke-miterlimit="10" stroke-dasharray="10,3"/></g><g transform="translate(-78,10) scale(1,1)"><g><path fill="none" stroke="none"/><text fill="#000000" stroke="none" font-family="Arial" font-size="13px" font-style="normal" font-weight="normal" text-decoration="none" x="123.5" y="490.5">[recherche non trouvé]</text></g></g></g></svg>