<svg version="1.1" xmlns="http://www.w3.org/2000/svg" xmlns:xlink="http://www.w3.org/1999/xlink" width="711" height="618"><defs/><g><text fill="#eeeeee" stroke="none" font-family="Arial" font-size="24px" font-style="normal" font-weight="normal" text-decoration="none" x="0" y="0">UNREGISTERED</text><text fill="#eeeeee" stroke="none" font-family="Arial" font-size="24px" font-style="normal" font-weight="normal" text-decoration="none" x="0" y="30">UNREGISTERED</text><text fill="#eeeeee" stroke="none" font-family="Arial" font-size="24px" font-style="normal" font-weight="normal" text-decoration="none" x="0" y="60">UNREGISTERED</text><text fill="#eeeeee" stroke="none" font-family="Arial" font-size="24px" font-style="normal" font-weight="normal" text-decoration="none" x="0" y="90">UNREGISTERED</text><text fill="#eeeeee" stroke="none" font-family="Arial" font-size="24px" font-style="normal" font-weight="normal" text-decoration="none" x="0" y="120">UNREGISTERED</text><text fill="#eeeeee" stroke="none" font-family="Arial" font-size="24px" font-style="normal" font-weight="normal" text-decoration="none" x="0" y="150">UNREGISTERED</text><text fill="#eeeeee" stroke="none" font-family="Arial" font-size="24px" font-style="normal" font-weight="normal" text-decoration="none" x="0" y="180">UNREGISTERED</text><text fill="#eeeeee" stroke="none" font-family="Arial" font-size="24px" font-style="normal" font-weight="normal" text-decoration="none" x="0" y="210">UNREGISTERED</text><text fill="#eeeeee" stroke="none" font-family="Arial" font-size="24px" font-style="normal" font-weight="normal" text-decoration="none" x="0" y="240">UNREGISTERED</text><text fill="#eeeeee" stroke="none" font-family="Arial" font-size="24px" font-style="normal" font-weight="normal" text-decoration="none" x="0" y="270">UNREGISTERED</text><text fill="#eeeeee" stroke="none" font-family="Arial" font-size="24px" font-style="normal" font-weight="normal" text-decoration="none" x="0" y="300">UNREGISTERED</text><text fill="#eeeeee" stroke="none" font-family="Arial" font-size="24px" font-style="normal" font-weight="normal" text-decoration="none" x="0" y="330">UNREGISTERED</text><text fill="#eeeeee" stroke="none" font-family="Arial" font-size="24px" font-style="normal" font-weight="normal" text-decoration="none" x="0" y="360">UNREGISTERED</text><text fill="#eeeeee" stroke="none" font-family="Arial" font-size="24px" font-style="normal" font-weight="normal" text-decoration="none" x="0" y="390">UNREGISTERED</text><text fill="#eeeeee" stroke="none" font-family="Arial" font-size="24px" font-style="normal" font-weight="normal" text-decoration="none" x="0" y="420">UNREGISTERED</text><text fill="#eeeeee" stroke="none" font-family="Arial" font-size="24px" font-style="normal" font-weight="normal" text-decoration="none" x="0" y="450">UNREGISTERED</text><text fill="#eeeeee" stroke="none" font-family="Arial" font-size="24px" font-style="normal" font-weight="normal" text-decoration="none" x="0" y="480">UNREGISTERED</text><text fill="#eeeeee" stroke="none" font-family="Arial" font-size="24px" font-style="normal" font-weight="normal" text-decoration="none" x="0" y="510">UNREGISTERED</text><text fill="#eeeeee" stroke="none" font-family="Arial" font-size="24px" font-style="normal" font-weight="normal" text-decoration="none" x="0" y="540">UNREGISTERED</text><text fill="#eeeeee" stroke="none" font-family="Arial" font-size="24px" font-style="normal" font-weight="normal" text-decoration="none" x="0" y="570">UNREGISTERED</text><text fill="#eeeeee" stroke="none" font-family="Arial" font-size="24px" font-style="normal" font-weight="normal" text-decoration="none" x="0" y="600">UNREGISTERED</text><text fill="#eeeeee" stroke="none" font-family="Arial" font-size="24px" font-style="normal" font-weight="normal" text-decoration="none" x="200" y="0">UNREGISTERED</text><text fill="#eeeeee" stroke="none" font-family="Arial" font-size="24px" font-style="normal" font-weight="normal" text-decoration="none" x="200" y="30">UNREGISTERED</text><text fill="#eeeeee" stroke="none" font-family="Arial" font-size="24px" font-style="normal" font-weight="normal" text-decoration="none" x="200" y="60">UNREGISTERED</text><text fill="#eeeeee" stroke="none" font-family="Arial" font-size="24px" font-style="normal" font-weight="normal" text-decoration="none" x="200" y="90">UNREGISTERED</text><text fill="#eeeeee" stroke="none" font-family="Arial" font-size="24px" font-style="normal" font-weight="normal" text-decoration="none" x="200" y="120">UNREGISTERED</text><text fill="#eeeeee" stroke="none" font-family="Arial" font-size="24px" font-style="normal" font-weight="normal" text-decoration="none" x="200" y="150">UNREGISTERED</text><text fill="#eeeeee" stroke="none" font-family="Arial" font-size="24px" font-style="normal" font-weight="normal" text-decoration="none" x="200" y="180">UNREGISTERED</text><text fill="#eeeeee" stroke="none" font-family="Arial" font-size="24px" font-style="normal" font-weight="normal" text-decoration="none" x="200" y="210">UNREGISTERED</text><text fill="#eeeeee" stroke="none" font-family="Arial" font-size="24px" font-style="normal" font-weight="normal" text-decoration="none" x="200" y="240">UNREGISTERED</text><text fill="#eeeeee" stroke="none" font-family="Arial" font-size="24px" font-style="normal" font-weight="normal" text-decoration="none" x="200" y="270">UNREGISTERED</text><text fill="#eeeeee" stroke="none" font-family="Arial" font-size="24px" font-style="normal" font-weight="normal" text-decoration="none" x="200" y="300">UNREGISTERED</text><text fill="#eeeeee" stroke="none" font-family="Arial" font-size="24px" font-style="normal" font-weight="normal" text-decoration="none" x="200" y="330">UNREGISTERED</text><text fill="#eeeeee" stroke="none" font-family="Arial" font-size="24px" font-style="normal" font-weight="normal" text-decoration="none" x="200" y="360">UNREGISTERED</text><text fill="#eeeeee" stroke="none" font-family="Arial" font-size="24px" font-style="normal" font-weight="normal" text-decoration="none" x="200" y="390">UNREGISTERED</text><text fill="#eeeeee" stroke="none" font-family="Arial" font-size="24px" font-style="normal" font-weight="normal" text-decoration="none" x="200" y="420">UNREGISTERED</text><text fill="#eeeeee" stroke="none" font-family="Arial" font-size="24px" font-style="normal" font-weight="normal" text-decoration="none" x="200" y="450">UNREGISTERED</text><text fill="#eeeeee" stroke="none" font-family="Arial" font-size="24px" font-style="normal" font-weight="normal" text-decoration="none" x="200" y="480">UNREGISTERED</text><text fill="#eeeeee" stroke="none" font-family="Arial" font-size="24px" font-style="normal" font-weight="normal" text-decoration="none" x="200" y="510">UNREGISTERED</text><text fill="#eeeeee" stroke="none" font-family="Arial" font-size="24px" font-style="normal" font-weight="normal" text-decoration="none" x="200" y="540">UNREGISTERED</text><text fill="#eeeeee" stroke="none" font-family="Arial" font-size="24px" font-style="normal" font-weight="normal" text-decoration="none" x="200" y="570">UNREGISTERED</text><text fill="#eeeeee" stroke="none" font-family="Arial" font-size="24px" font-style="normal" font-weight="normal" text-decoration="none" x="200" y="600">UNREGISTERED</text><text fill="#eeeeee" stroke="none" font-family="Arial" font-size="24px" font-style="normal" font-weight="normal" text-decoration="none" x="400" y="0">UNREGISTERED</text><text fill="#eeeeee" stroke="none" font-family="Arial" font-size="24px" font-style="normal" font-weight="normal" text-decoration="none" x="400" y="30">UNREGISTERED</text><text fill="#eeeeee" stroke="none" font-family="Arial" font-size="24px" font-style="normal" font-weight="normal" text-decoration="none" x="400" y="60">UNREGISTERED</text><text fill="#eeeeee" stroke="none" font-family="Arial" font-size="24px" font-style="normal" font-weight="normal" text-decoration="none" x="400" y="90">UNREGISTERED</text><text fill="#eeeeee" stroke="none" font-family="Arial" font-size="24px" font-style="normal" font-weight="normal" text-decoration="none" x="400" y="120">UNREGISTERED</text><text fill="#eeeeee" stroke="none" font-family="Arial" font-size="24px" font-style="normal" font-weight="normal" text-decoration="none" x="400" y="150">UNREGISTERED</text><text fill="#eeeeee" stroke="none" font-family="Arial" font-size="24px" font-style="normal" font-weight="normal" text-decoration="none" x="400" y="180">UNREGISTERED</text><text fill="#eeeeee" stroke="none" font-family="Arial" font-size="24px" font-style="normal" font-weight="normal" text-decoration="none" x="400" y="210">UNREGISTERED</text><text fill="#eeeeee" stroke="none" font-family="Arial" font-size="24px" font-style="normal" font-weight="normal" text-decoration="none" x="400" y="240">UNREGISTERED</text><text fill="#eeeeee" stroke="none" font-family="Arial" font-size="24px" font-style="normal" font-weight="normal" text-decoration="none" x="400" y="270">UNREGISTERED</text><text fill="#eeeeee" stroke="none" font-family="Arial" font-size="24px" font-style="normal" font-weight="normal" text-decoration="none" x="400" y="300">UNREGISTERED</text><text fill="#eeeeee" stroke="none" font-family="Arial" font-size="24px" font-style="normal" font-weight="normal" text-decoration="none" x="400" y="330">UNREGISTERED</text><text fill="#eeeeee" stroke="none" font-family="Arial" font-size="24px" font-style="normal" font-weight="normal" text-decoration="none" x="400" y="360">UNREGISTERED</text><text fill="#eeeeee" stroke="none" font-family="Arial" font-size="24px" font-style="normal" font-weight="normal" text-decoration="none" x="400" y="390">UNREGISTERED</text><text fill="#eeeeee" stroke="none" font-family="Arial" font-size="24px" font-style="normal" font-weight="normal" text-decoration="none" x="400" y="420">UNREGISTERED</text><text fill="#eeeeee" stroke="none" font-family="Arial" font-size="24px" font-style="normal" font-weight="normal" text-decoration="none" x="400" y="450">UNREGISTERED</text><text fill="#eeeeee" stroke="none" font-family="Arial" font-size="24px" font-style="normal" font-weight="normal" text-decoration="none" x="400" y="480">UNREGISTERED</text><text fill="#eeeeee" stroke="none" font-family="Arial" font-size="24px" font-style="normal" font-weight="normal" text-decoration="none" x="400" y="510">UNREGISTERED</text><text fill="#eeeeee" stroke="none" font-family="Arial" font-size="24px" font-style="normal" font-weight="normal" text-decoration="none" x="400" y="540">UNREGISTERED</text><text fill="#eeeeee" stroke="none" font-family="Arial" font-size="24px" font-style="normal" font-weight="normal" text-decoration="none" x="400" y="570">UNREGISTERED</text><text fill="#eeeeee" stroke="none" font-family="Arial" font-size="24px" font-style="normal" font-weight="normal" text-decoration="none" x="400" y="600">UNREGISTERED</text><text fill="#eeeeee" stroke="none" font-family="Arial" font-size="24px" font-style="normal" font-weight="normal" text-decoration="none" x="600" y="0">UNREGISTERED</text><text fill="#eeeeee" stroke="none" font-family="Arial" font-size="24px" font-style="normal" font-weight="normal" text-decoration="none" x="600" y="30">UNREGISTERED</text><text fill="#eeeeee" stroke="none" font-family="Arial" font-size="24px" font-style="normal" font-weight="normal" text-decoration="none" x="600" y="60">UNREGISTERED</text><text fill="#eeeeee" stroke="none" font-family="Arial" font-size="24px" font-style="normal" font-weight="normal" text-decoration="none" x="600" y="90">UNREGISTERED</text><text fill="#eeeeee" stroke="none" font-family="Arial" font-size="24px" font-style="normal" font-weight="normal" text-decoration="none" x="600" y="120">UNREGISTERED</text><text fill="#eeeeee" stroke="none" font-family="Arial" font-size="24px" font-style="normal" font-weight="normal" text-decoration="none" x="600" y="150">UNREGISTERED</text><text fill="#eeeeee" stroke="none" font-family="Arial" font-size="24px" font-style="normal" font-weight="normal" text-decoration="none" x="600" y="180">UNREGISTERED</text><text fill="#eeeeee" stroke="none" font-family="Arial" font-size="24px" font-style="normal" font-weight="normal" text-decoration="none" x="600" y="210">UNREGISTERED</text><text fill="#eeeeee" stroke="none" font-family="Arial" font-size="24px" font-style="normal" font-weight="normal" text-decoration="none" x="600" y="240">UNREGISTERED</text><text fill="#eeeeee" stroke="none" font-family="Arial" font-size="24px" font-style="normal" font-weight="normal" text-decoration="none" x="600" y="270">UNREGISTERED</text><text fill="#eeeeee" stroke="none" font-family="Arial" font-size="24px" font-style="normal" font-weight="normal" text-decoration="none" x="600" y="300">UNREGISTERED</text><text fill="#eeeeee" stroke="none" font-family="Arial" font-size="24px" font-style="normal" font-weight="normal" text-decoration="none" x="600" y="330">UNREGISTERED</text><text fill="#eeeeee" stroke="none" font-family="Arial" font-size="24px" font-style="normal" font-weight="normal" text-decoration="none" x="600" y="360">UNREGISTERED</text><text fill="#eeeeee" stroke="none" font-family="Arial" font-size="24px" font-style="normal" font-weight="normal" text-decoration="none" x="600" y="390">UNREGISTERED</text><text fill="#eeeeee" stroke="none" font-family="Arial" font-size="24px" font-style="normal" font-weight="normal" text-decoration="none" x="600" y="420">UNREGISTERED</text><text fill="#eeeeee" stroke="none" font-family="Arial" font-size="24px" font-style="normal" font-weight="normal" text-decoration="none" x="600" y="450">UNREGISTERED</text><text fill="#eeeeee" stroke="none" font-family="Arial" font-size="24px" font-style="normal" font-weight="normal" text-decoration="none" x="600" y="480">UNREGISTERED</text><text fill="#eeeeee" stroke="none" font-family="Arial" font-size="24px" font-style="normal" font-weight="normal" text-decoration="none" x="600" y="510">UNREGISTERED</text><text fill="#eeeeee" stroke="none" font-family="Arial" font-size="24px" font-style="normal" font-weight="normal" text-decoration="none" x="600" y="540">UNREGISTERED</text><text fill="#eeeeee" stroke="none" font-family="Arial" font-size="24px" font-style="normal" font-weight="normal" text-decoration="none" x="600" y="570">UNREGISTERED</text><text fill="#eeeeee" stroke="none" font-family="Arial" font-size="24px" font-style="normal" font-weight="normal" text-decoration="none" x="600" y="600">UNREGISTERED</text><g transform="translate(2,2) scale(1,1)"><path fill="none" stroke="#000000" d="M 8 8 L 699 8 L 699 599 L 8 599 L 8 8" stroke-miterlimit="10"/></g><g transform="translate(2,2) scale(1,1)"><path fill="#ffffff" stroke="none" d="M 8 8 L 8 30 L 474.2265625 30 L 485.2265625 19 L 485.2265625 8 L 8 8"/></g><g transform="translate(2,2) scale(1,1)"><path fill="none" stroke="#000000" d="M 8 8 L 8 30 L 474.2265625 30 L 485.2265625 19 L 485.2265625 8 L 8 8 L 8 8" stroke-miterlimit="10"/></g><g transform="translate(2,2) scale(1,1)"><g><path fill="none" stroke="none"/><text fill="#000000" stroke="none" font-family="Arial" font-size="13px" font-style="normal" font-weight="normal" text-decoration="none" x="32.72998046875" y="23.5">diagramme  de séquence  systéme  de suppréssion  de poste téléphonique </text></g></g><g transform="translate(2,2) scale(1,1)"><g><path fill="none" stroke="none"/><text fill="#000000" stroke="none" font-family="Arial" font-size="13px" font-style="normal" font-weight="bold" text-decoration="none" x="12.279541015625" y="23.5">sd</text></g></g><g transform="translate(2,2) scale(1,1)"><rect fill="#C0C0C0" stroke="none" x="463" y="47" width="225.60986328125" height="39" opacity="0.2"/></g><g transform="translate(2,2) scale(1,1)"><rect fill="#ffffff" stroke="none" x="456" y="40" width="225.60986328125" height="39"/></g><g transform="translate(2,2) scale(1,1)"><path fill="none" stroke="#000000" d="M 456 40 L 681.60986328125 40 L 681.60986328125 79 L 456 79 L 456 40 Z Z" stroke-miterlimit="10"/></g><g transform="translate(2,2) scale(1,1)"><g><path fill="none" stroke="none"/><text fill="#000000" stroke="none" font-family="Arial" font-size="13px" font-style="normal" font-weight="bold" text-decoration="none" x="465.5" y="57.5">application gestion de recherche </text></g></g><g transform="translate(2,2) scale(1,1)"><path fill="none" stroke="#000000" d="M 569.5 80 L 569.5 606" stroke-miterlimit="10" stroke-dasharray="3"/></g><g transform="translate(2,2) scale(1,1)"><path fill="#ffffff" stroke="none" d="M 528.406005859375 80 L 608.593994140625 80 Q 618.593994140625 80 618.593994140625 90 L 618.593994140625 89 Q 618.593994140625 99 608.593994140625 99 L 528.406005859375 99 Q 518.406005859375 99 518.406005859375 89 L 518.406005859375 90 Q 518.406005859375 80 528.406005859375 80 Z"/></g><g transform="translate(2,2) scale(1,1)"><path fill="none" stroke="#000000" d="M 528.406005859375 80 L 608.593994140625 80 Q 618.593994140625 80 618.593994140625 90 L 618.593994140625 89 Q 618.593994140625 99 608.593994140625 99 L 528.406005859375 99 Q 518.406005859375 99 518.406005859375 89 L 518.406005859375 90 Q 518.406005859375 80 528.406005859375 80 Z" stroke-miterlimit="10"/></g><g transform="translate(2,2) scale(1,1)"><g><path fill="none" stroke="none"/><text fill="#000000" stroke="none" font-family="Arial" font-size="13px" font-style="normal" font-weight="normal" text-decoration="none" x="517.906005859375" y="94">{user authencité }</text></g></g><g transform="translate(2,2) scale(1,1)"><path fill="#ffffff" stroke="none" d="M 493.709716796875 104 L 643.290283203125 104 Q 653.290283203125 104 653.290283203125 114 L 653.290283203125 113 Q 653.290283203125 123 643.290283203125 123 L 493.709716796875 123 Q 483.709716796875 123 483.709716796875 113 L 483.709716796875 114 Q 483.709716796875 104 493.709716796875 104 Z"/></g><g transform="translate(2,2) scale(1,1)"><path fill="none" stroke="#000000" d="M 493.709716796875 104 L 643.290283203125 104 Q 653.290283203125 104 653.290283203125 114 L 653.290283203125 113 Q 653.290283203125 123 643.290283203125 123 L 493.709716796875 123 Q 483.709716796875 123 483.709716796875 113 L 483.709716796875 114 Q 483.709716796875 104 493.709716796875 104 Z" stroke-miterlimit="10"/></g><g transform="translate(2,2) scale(1,1)"><g><path fill="none" stroke="none"/><text fill="#000000" stroke="none" font-family="Arial" font-size="13px" font-style="normal" font-weight="normal" text-decoration="none" x="483.209716796875" y="118">{poste télephonique existant }</text></g></g><g transform="translate(2,2) scale(1,1)"><path fill="#ffffff" stroke="none" d="M 104.9981551846591 47.3 C 104.9981551846591 43.82060576 107.87655690684092 41 111.42724609375 41 C 114.97793528065908 41 117.8563370028409 43.82060576 117.8563370028409 47.3 C 117.8563370028409 50.779394239999995 114.97793528065908 53.6 111.42724609375 53.6 C 107.87655690684092 53.6 104.9981551846591 50.779394239999995 104.9981551846591 47.3 Z"/></g><g transform="translate(2,2) scale(1,1)"><path fill="none" stroke="#000000" d="M 104.9981551846591 47.3 C 104.9981551846591 43.82060576 107.87655690684092 41 111.42724609375 41 C 114.97793528065908 41 117.8563370028409 43.82060576 117.8563370028409 47.3 C 117.8563370028409 50.779394239999995 114.97793528065908 53.6 111.42724609375 53.6 C 107.87655690684092 53.6 104.9981551846591 50.779394239999995 104.9981551846591 47.3 Z" stroke-miterlimit="10"/></g><g transform="translate(2,2) scale(1,1)"><path fill="none" stroke="#000000" d="M 111.42724609375 53.6 L 111.42724609375 66.4" stroke-miterlimit="10"/></g><g transform="translate(2,2) scale(1,1)"><path fill="none" stroke="#000000" d="M 104.61997336647727 58.4 L 118.23451882102273 58.4" stroke-miterlimit="10"/></g><g transform="translate(2,2) scale(1,1)"><path fill="none" stroke="#000000" d="M 111.42724609375 66.4 L 101.97270063920455 79" stroke-miterlimit="10"/></g><g transform="translate(2,2) scale(1,1)"><path fill="none" stroke="#000000" d="M 111.42724609375 66.4 L 120.88179154829545 79" stroke-miterlimit="10"/></g><g transform="translate(2,2) scale(1,1)"><g><path fill="none" stroke="none"/><text fill="#000000" stroke="none" font-family="Arial" font-size="13px" font-style="normal" font-weight="bold" text-decoration="none" x="60.5" y="97.5">Lifeline1: Actor1</text></g></g><g transform="translate(2,2) scale(1,1)"><path fill="none" stroke="#000000" d="M 112.5 105 L 112.5 590" stroke-miterlimit="10" stroke-dasharray="3"/></g><g transform="translate(2,2) scale(1,1)"><path fill="none" stroke="#000000" d="M 112 300 L 562 300" stroke-miterlimit="10"/></g><g transform="translate(2,2) scale(1,1)"><path fill="#000000" stroke="none" d="M 551.8373251423759 304.209517756016 L 562 300 L 551.8373251423758 295.790482243984"/></g><g transform="translate(2,2) scale(1,1)"><path fill="none" stroke="#000000" d="M 551.8373251423759 304.209517756016 L 562 300 L 551.8373251423758 295.790482243984 L 551.8373251423759 304.209517756016" stroke-miterlimit="10"/></g><g transform="translate(2,2) scale(1,1)"><g><path fill="none" stroke="none"/><text fill="#000000" stroke="none" font-family="Arial" font-size="13px" font-style="normal" font-weight="normal" text-decoration="none" x="262.5" y="294.5">1 : Appuyer sur supprimer</text></g></g><g transform="translate(2,2) scale(1,1)"><rect fill="#ffffff" stroke="none" x="562" y="300" width="13" height="28"/></g><g transform="translate(2,2) scale(1,1)"><path fill="none" stroke="#000000" d="M 562 300 L 575 300 L 575 328 L 562 328 L 562 300 Z Z" stroke-miterlimit="10"/></g><g transform="translate(2,2) scale(1,1)"><path fill="none" stroke="#000000" d="M 569 341 L 112 341" stroke-miterlimit="10" stroke-dasharray="3"/></g><g transform="translate(2,2) scale(1,1)"><path fill="none" stroke="#000000" d="M 122.16267485762415 336.790482243984 L 112 341 L 122.16267485762415 345.209517756016" stroke-miterlimit="10"/></g><g transform="translate(2,2) scale(1,1)"><g><path fill="none" stroke="none"/><text fill="#000000" stroke="none" font-family="Arial" font-size="13px" font-style="normal" font-weight="normal" text-decoration="none" x="248.5" y="355.5">2 : afficher pop up de validation</text></g></g><g transform="translate(2,2) scale(1,1)"><path fill="none" stroke="#000000" d="M 569 495 L 112 495" stroke-miterlimit="10" stroke-dasharray="3"/></g><g transform="translate(2,2) scale(1,1)"><path fill="none" stroke="#000000" d="M 122.16267485762415 490.790482243984 L 112 495 L 122.16267485762415 499.209517756016" stroke-miterlimit="10"/></g><g transform="translate(2,2) scale(1,1)"><g><path fill="none" stroke="none"/><text fill="#000000" stroke="none" font-family="Arial" font-size="13px" font-style="normal" font-weight="normal" text-decoration="none" x="271.5" y="509.5">3 : suppréssion términé</text></g></g><g transform="translate(2,2) scale(1,1)"><path fill="none" stroke="#000000" d="M 569 576 L 112 576" stroke-miterlimit="10" stroke-dasharray="3"/></g><g transform="translate(2,2) scale(1,1)"><path fill="none" stroke="#000000" d="M 122.16267485762415 571.790482243984 L 112 576 L 122.16267485762415 580.209517756016" stroke-miterlimit="10"/></g><g transform="translate(2,2) scale(1,1)"><g><path fill="none" stroke="none"/><text fill="#000000" stroke="none" font-family="Arial" font-size="13px" font-style="normal" font-weight="normal" text-decoration="none" x="273.5" y="590.5">4 : suppréssion annulé</text></g></g><g transform="translate(2,2) scale(1,1)"><path fill="none" stroke="#000000" d="M 80 184 L 647 184 L 647 249 L 80 249 L 80 184" stroke-miterlimit="10"/></g><g transform="translate(2,2) scale(1,1)"><path fill="#ffffff" stroke="none" d="M 80 184 L 80 206 L 521.97216796875 206 L 532.97216796875 195 L 532.97216796875 184 L 80 184"/></g><g transform="translate(2,2) scale(1,1)"><path fill="none" stroke="#000000" d="M 80 184 L 80 206 L 521.97216796875 206 L 532.97216796875 195 L 532.97216796875 184 L 80 184 L 80 184" stroke-miterlimit="10"/></g><g transform="translate(2,2) scale(1,1)"><g><path fill="none" stroke="none"/><text fill="#000000" stroke="none" font-family="Arial" font-size="13px" font-style="normal" font-weight="normal" text-decoration="none" x="111.9599609375" y="199.5">diagramme de  séquence  systéme  recherched'un poste téléphonique</text></g></g><g transform="translate(2,2) scale(1,1)"><g><path fill="none" stroke="none"/><text fill="#000000" stroke="none" font-family="Arial" font-size="13px" font-style="normal" font-weight="bold" text-decoration="none" x="84.279541015625" y="198.5">seq</text></g></g><g transform="translate(2,2) scale(1,1)"><path fill="none" stroke="#000000" d="M 96 424 L 680 424 L 680 592 L 96 592 L 96 424" stroke-miterlimit="10"/></g><g transform="translate(2,2) scale(1,1)"><path fill="#ffffff" stroke="none" d="M 96 424 L 96 446 L 196.5380859375 446 L 207.5380859375 435 L 207.5380859375 424 L 96 424"/></g><g transform="translate(2,2) scale(1,1)"><path fill="none" stroke="#000000" d="M 96 424 L 96 446 L 196.5380859375 446 L 207.5380859375 435 L 207.5380859375 424 L 96 424 L 96 424" stroke-miterlimit="10"/></g><g transform="translate(2,2) scale(1,1)"><g><path fill="none" stroke="none"/><text fill="#000000" stroke="none" font-family="Arial" font-size="13px" font-style="normal" font-weight="normal" text-decoration="none" x="120.72998046875" y="439.5">confirmation</text></g></g><g transform="translate(2,2) scale(1,1)"><g><path fill="none" stroke="none"/><text fill="#000000" stroke="none" font-family="Arial" font-size="13px" font-style="normal" font-weight="bold" text-decoration="none" x="100.279541015625" y="439.5">alt</text></g></g><g transform="translate(2,2) scale(1,1)"><g><path fill="none" stroke="none"/><text fill="#000000" stroke="none" font-family="Arial" font-size="13px" font-style="normal" font-weight="normal" text-decoration="none" x="115.5" y="472.5">[si on a une confirmation]</text></g></g><g transform="translate(2,2) scale(1,1)"><path fill="none" stroke="#000000" d="M 96 513 L 680 513" stroke-miterlimit="10" stroke-dasharray="10,3"/></g><g transform="translate(2,2) scale(1,1)"><g><path fill="none" stroke="none"/><text fill="#000000" stroke="none" font-family="Arial" font-size="13px" font-style="normal" font-weight="normal" text-decoration="none" x="115.5" y="538.5">[si on a cliqué ailleur ou non]</text></g></g></g></svg>