<svg version="1.1" xmlns="http://www.w3.org/2000/svg" xmlns:xlink="http://www.w3.org/1999/xlink" width="974" height="563"><defs/><g><text fill="#eeeeee" stroke="none" font-family="Arial" font-size="24px" font-style="normal" font-weight="normal" text-decoration="none" x="0" y="0">UNREGISTERED</text><text fill="#eeeeee" stroke="none" font-family="Arial" font-size="24px" font-style="normal" font-weight="normal" text-decoration="none" x="0" y="30">UNREGISTERED</text><text fill="#eeeeee" stroke="none" font-family="Arial" font-size="24px" font-style="normal" font-weight="normal" text-decoration="none" x="0" y="60">UNREGISTERED</text><text fill="#eeeeee" stroke="none" font-family="Arial" font-size="24px" font-style="normal" font-weight="normal" text-decoration="none" x="0" y="90">UNREGISTERED</text><text fill="#eeeeee" stroke="none" font-family="Arial" font-size="24px" font-style="normal" font-weight="normal" text-decoration="none" x="0" y="120">UNREGISTERED</text><text fill="#eeeeee" stroke="none" font-family="Arial" font-size="24px" font-style="normal" font-weight="normal" text-decoration="none" x="0" y="150">UNREGISTERED</text><text fill="#eeeeee" stroke="none" font-family="Arial" font-size="24px" font-style="normal" font-weight="normal" text-decoration="none" x="0" y="180">UNREGISTERED</text><text fill="#eeeeee" stroke="none" font-family="Arial" font-size="24px" font-style="normal" font-weight="normal" text-decoration="none" x="0" y="210">UNREGISTERED</text><text fill="#eeeeee" stroke="none" font-family="Arial" font-size="24px" font-style="normal" font-weight="normal" text-decoration="none" x="0" y="240">UNREGISTERED</text><text fill="#eeeeee" stroke="none" font-family="Arial" font-size="24px" font-style="normal" font-weight="normal" text-decoration="none" x="0" y="270">UNREGISTERED</text><text fill="#eeeeee" stroke="none" font-family="Arial" font-size="24px" font-style="normal" font-weight="normal" text-decoration="none" x="0" y="300">UNREGISTERED</text><text fill="#eeeeee" stroke="none" font-family="Arial" font-size="24px" font-style="normal" font-weight="normal" text-decoration="none" x="0" y="330">UNREGISTERED</text><text fill="#eeeeee" stroke="none" font-family="Arial" font-size="24px" font-style="normal" font-weight="normal" text-decoration="none" x="0" y="360">UNREGISTERED</text><text fill="#eeeeee" stroke="none" font-family="Arial" font-size="24px" font-style="normal" font-weight="normal" text-decoration="none" x="0" y="390">UNREGISTERED</text><text fill="#eeeeee" stroke="none" font-family="Arial" font-size="24px" font-style="normal" font-weight="normal" text-decoration="none" x="0" y="420">UNREGISTERED</text><text fill="#eeeeee" stroke="none" font-family="Arial" font-size="24px" font-style="normal" font-weight="normal" text-decoration="none" x="0" y="450">UNREGISTERED</text><text fill="#eeeeee" stroke="none" font-family="Arial" font-size="24px" font-style="normal" font-weight="normal" text-decoration="none" x="0" y="480">UNREGISTERED</text><text fill="#eeeeee" stroke="none" font-family="Arial" font-size="24px" font-style="normal" font-weight="normal" text-decoration="none" x="0" y="510">UNREGISTERED</text><text fill="#eeeeee" stroke="none" font-family="Arial" font-size="24px" font-style="normal" font-weight="normal" text-decoration="none" x="0" y="540">UNREGISTERED</text><text fill="#eeeeee" stroke="none" font-family="Arial" font-size="24px" font-style="normal" font-weight="normal" text-decoration="none" x="200" y="0">UNREGISTERED</text><text fill="#eeeeee" stroke="none" font-family="Arial" font-size="24px" font-style="normal" font-weight="normal" text-decoration="none" x="200" y="30">UNREGISTERED</text><text fill="#eeeeee" stroke="none" font-family="Arial" font-size="24px" font-style="normal" font-weight="normal" text-decoration="none" x="200" y="60">UNREGISTERED</text><text fill="#eeeeee" stroke="none" font-family="Arial" font-size="24px" font-style="normal" font-weight="normal" text-decoration="none" x="200" y="90">UNREGISTERED</text><text fill="#eeeeee" stroke="none" font-family="Arial" font-size="24px" font-style="normal" font-weight="normal" text-decoration="none" x="200" y="120">UNREGISTERED</text><text fill="#eeeeee" stroke="none" font-family="Arial" font-size="24px" font-style="normal" font-weight="normal" text-decoration="none" x="200" y="150">UNREGISTERED</text><text fill="#eeeeee" stroke="none" font-family="Arial" font-size="24px" font-style="normal" font-weight="normal" text-decoration="none" x="200" y="180">UNREGISTERED</text><text fill="#eeeeee" stroke="none" font-family="Arial" font-size="24px" font-style="normal" font-weight="normal" text-decoration="none" x="200" y="210">UNREGISTERED</text><text fill="#eeeeee" stroke="none" font-family="Arial" font-size="24px" font-style="normal" font-weight="normal" text-decoration="none" x="200" y="240">UNREGISTERED</text><text fill="#eeeeee" stroke="none" font-family="Arial" font-size="24px" font-style="normal" font-weight="normal" text-decoration="none" x="200" y="270">UNREGISTERED</text><text fill="#eeeeee" stroke="none" font-family="Arial" font-size="24px" font-style="normal" font-weight="normal" text-decoration="none" x="200" y="300">UNREGISTERED</text><text fill="#eeeeee" stroke="none" font-family="Arial" font-size="24px" font-style="normal" font-weight="normal" text-decoration="none" x="200" y="330">UNREGISTERED</text><text fill="#eeeeee" stroke="none" font-family="Arial" font-size="24px" font-style="normal" font-weight="normal" text-decoration="none" x="200" y="360">UNREGISTERED</text><text fill="#eeeeee" stroke="none" font-family="Arial" font-size="24px" font-style="normal" font-weight="normal" text-decoration="none" x="200" y="390">UNREGISTERED</text><text fill="#eeeeee" stroke="none" font-family="Arial" font-size="24px" font-style="normal" font-weight="normal" text-decoration="none" x="200" y="420">UNREGISTERED</text><text fill="#eeeeee" stroke="none" font-family="Arial" font-size="24px" font-style="normal" font-weight="normal" text-decoration="none" x="200" y="450">UNREGISTERED</text><text fill="#eeeeee" stroke="none" font-family="Arial" font-size="24px" font-style="normal" font-weight="normal" text-decoration="none" x="200" y="480">UNREGISTERED</text><text fill="#eeeeee" stroke="none" font-family="Arial" font-size="24px" font-style="normal" font-weight="normal" text-decoration="none" x="200" y="510">UNREGISTERED</text><text fill="#eeeeee" stroke="none" font-family="Arial" font-size="24px" font-style="normal" font-weight="normal" text-decoration="none" x="200" y="540">UNREGISTERED</text><text fill="#eeeeee" stroke="none" font-family="Arial" font-size="24px" font-style="normal" font-weight="normal" text-decoration="none" x="400" y="0">UNREGISTERED</text><text fill="#eeeeee" stroke="none" font-family="Arial" font-size="24px" font-style="normal" font-weight="normal" text-decoration="none" x="400" y="30">UNREGISTERED</text><text fill="#eeeeee" stroke="none" font-family="Arial" font-size="24px" font-style="normal" font-weight="normal" text-decoration="none" x="400" y="60">UNREGISTERED</text><text fill="#eeeeee" stroke="none" font-family="Arial" font-size="24px" font-style="normal" font-weight="normal" text-decoration="none" x="400" y="90">UNREGISTERED</text><text fill="#eeeeee" stroke="none" font-family="Arial" font-size="24px" font-style="normal" font-weight="normal" text-decoration="none" x="400" y="120">UNREGISTERED</text><text fill="#eeeeee" stroke="none" font-family="Arial" font-size="24px" font-style="normal" font-weight="normal" text-decoration="none" x="400" y="150">UNREGISTERED</text><text fill="#eeeeee" stroke="none" font-family="Arial" font-size="24px" font-style="normal" font-weight="normal" text-decoration="none" x="400" y="180">UNREGISTERED</text><text fill="#eeeeee" stroke="none" font-family="Arial" font-size="24px" font-style="normal" font-weight="normal" text-decoration="none" x="400" y="210">UNREGISTERED</text><text fill="#eeeeee" stroke="none" font-family="Arial" font-size="24px" font-style="normal" font-weight="normal" text-decoration="none" x="400" y="240">UNREGISTERED</text><text fill="#eeeeee" stroke="none" font-family="Arial" font-size="24px" font-style="normal" font-weight="normal" text-decoration="none" x="400" y="270">UNREGISTERED</text><text fill="#eeeeee" stroke="none" font-family="Arial" font-size="24px" font-style="normal" font-weight="normal" text-decoration="none" x="400" y="300">UNREGISTERED</text><text fill="#eeeeee" stroke="none" font-family="Arial" font-size="24px" font-style="normal" font-weight="normal" text-decoration="none" x="400" y="330">UNREGISTERED</text><text fill="#eeeeee" stroke="none" font-family="Arial" font-size="24px" font-style="normal" font-weight="normal" text-decoration="none" x="400" y="360">UNREGISTERED</text><text fill="#eeeeee" stroke="none" font-family="Arial" font-size="24px" font-style="normal" font-weight="normal" text-decoration="none" x="400" y="390">UNREGISTERED</text><text fill="#eeeeee" stroke="none" font-family="Arial" font-size="24px" font-style="normal" font-weight="normal" text-decoration="none" x="400" y="420">UNREGISTERED</text><text fill="#eeeeee" stroke="none" font-family="Arial" font-size="24px" font-style="normal" font-weight="normal" text-decoration="none" x="400" y="450">UNREGISTERED</text><text fill="#eeeeee" stroke="none" font-family="Arial" font-size="24px" font-style="normal" font-weight="normal" text-decoration="none" x="400" y="480">UNREGISTERED</text><text fill="#eeeeee" stroke="none" font-family="Arial" font-size="24px" font-style="normal" font-weight="normal" text-decoration="none" x="400" y="510">UNREGISTERED</text><text fill="#eeeeee" stroke="none" font-family="Arial" font-size="24px" font-style="normal" font-weight="normal" text-decoration="none" x="400" y="540">UNREGISTERED</text><text fill="#eeeeee" stroke="none" font-family="Arial" font-size="24px" font-style="normal" font-weight="normal" text-decoration="none" x="600" y="0">UNREGISTERED</text><text fill="#eeeeee" stroke="none" font-family="Arial" font-size="24px" font-style="normal" font-weight="normal" text-decoration="none" x="600" y="30">UNREGISTERED</text><text fill="#eeeeee" stroke="none" font-family="Arial" font-size="24px" font-style="normal" font-weight="normal" text-decoration="none" x="600" y="60">UNREGISTERED</text><text fill="#eeeeee" stroke="none" font-family="Arial" font-size="24px" font-style="normal" font-weight="normal" text-decoration="none" x="600" y="90">UNREGISTERED</text><text fill="#eeeeee" stroke="none" font-family="Arial" font-size="24px" font-style="normal" font-weight="normal" text-decoration="none" x="600" y="120">UNREGISTERED</text><text fill="#eeeeee" stroke="none" font-family="Arial" font-size="24px" font-style="normal" font-weight="normal" text-decoration="none" x="600" y="150">UNREGISTERED</text><text fill="#eeeeee" stroke="none" font-family="Arial" font-size="24px" font-style="normal" font-weight="normal" text-decoration="none" x="600" y="180">UNREGISTERED</text><text fill="#eeeeee" stroke="none" font-family="Arial" font-size="24px" font-style="normal" font-weight="normal" text-decoration="none" x="600" y="210">UNREGISTERED</text><text fill="#eeeeee" stroke="none" font-family="Arial" font-size="24px" font-style="normal" font-weight="normal" text-decoration="none" x="600" y="240">UNREGISTERED</text><text fill="#eeeeee" stroke="none" font-family="Arial" font-size="24px" font-style="normal" font-weight="normal" text-decoration="none" x="600" y="270">UNREGISTERED</text><text fill="#eeeeee" stroke="none" font-family="Arial" font-size="24px" font-style="normal" font-weight="normal" text-decoration="none" x="600" y="300">UNREGISTERED</text><text fill="#eeeeee" stroke="none" font-family="Arial" font-size="24px" font-style="normal" font-weight="normal" text-decoration="none" x="600" y="330">UNREGISTERED</text><text fill="#eeeeee" stroke="none" font-family="Arial" font-size="24px" font-style="normal" font-weight="normal" text-decoration="none" x="600" y="360">UNREGISTERED</text><text fill="#eeeeee" stroke="none" font-family="Arial" font-size="24px" font-style="normal" font-weight="normal" text-decoration="none" x="600" y="390">UNREGISTERED</text><text fill="#eeeeee" stroke="none" font-family="Arial" font-size="24px" font-style="normal" font-weight="normal" text-decoration="none" x="600" y="420">UNREGISTERED</text><text fill="#eeeeee" stroke="none" font-family="Arial" font-size="24px" font-style="normal" font-weight="normal" text-decoration="none" x="600" y="450">UNREGISTERED</text><text fill="#eeeeee" stroke="none" font-family="Arial" font-size="24px" font-style="normal" font-weight="normal" text-decoration="none" x="600" y="480">UNREGISTERED</text><text fill="#eeeeee" stroke="none" font-family="Arial" font-size="24px" font-style="normal" font-weight="normal" text-decoration="none" x="600" y="510">UNREGISTERED</text><text fill="#eeeeee" stroke="none" font-family="Arial" font-size="24px" font-style="normal" font-weight="normal" text-decoration="none" x="600" y="540">UNREGISTERED</text><text fill="#eeeeee" stroke="none" font-family="Arial" font-size="24px" font-style="normal" font-weight="normal" text-decoration="none" x="800" y="0">UNREGISTERED</text><text fill="#eeeeee" stroke="none" font-family="Arial" font-size="24px" font-style="normal" font-weight="normal" text-decoration="none" x="800" y="30">UNREGISTERED</text><text fill="#eeeeee" stroke="none" font-family="Arial" font-size="24px" font-style="normal" font-weight="normal" text-decoration="none" x="800" y="60">UNREGISTERED</text><text fill="#eeeeee" stroke="none" font-family="Arial" font-size="24px" font-style="normal" font-weight="normal" text-decoration="none" x="800" y="90">UNREGISTERED</text><text fill="#eeeeee" stroke="none" font-family="Arial" font-size="24px" font-style="normal" font-weight="normal" text-decoration="none" x="800" y="120">UNREGISTERED</text><text fill="#eeeeee" stroke="none" font-family="Arial" font-size="24px" font-style="normal" font-weight="normal" text-decoration="none" x="800" y="150">UNREGISTERED</text><text fill="#eeeeee" stroke="none" font-family="Arial" font-size="24px" font-style="normal" font-weight="normal" text-decoration="none" x="800" y="180">UNREGISTERED</text><text fill="#eeeeee" stroke="none" font-family="Arial" font-size="24px" font-style="normal" font-weight="normal" text-decoration="none" x="800" y="210">UNREGISTERED</text><text fill="#eeeeee" stroke="none" font-family="Arial" font-size="24px" font-style="normal" font-weight="normal" text-decoration="none" x="800" y="240">UNREGISTERED</text><text fill="#eeeeee" stroke="none" font-family="Arial" font-size="24px" font-style="normal" font-weight="normal" text-decoration="none" x="800" y="270">UNREGISTERED</text><text fill="#eeeeee" stroke="none" font-family="Arial" font-size="24px" font-style="normal" font-weight="normal" text-decoration="none" x="800" y="300">UNREGISTERED</text><text fill="#eeeeee" stroke="none" font-family="Arial" font-size="24px" font-style="normal" font-weight="normal" text-decoration="none" x="800" y="330">UNREGISTERED</text><text fill="#eeeeee" stroke="none" font-family="Arial" font-size="24px" font-style="normal" font-weight="normal" text-decoration="none" x="800" y="360">UNREGISTERED</text><text fill="#eeeeee" stroke="none" font-family="Arial" font-size="24px" font-style="normal" font-weight="normal" text-decoration="none" x="800" y="390">UNREGISTERED</text><text fill="#eeeeee" stroke="none" font-family="Arial" font-size="24px" font-style="normal" font-weight="normal" text-decoration="none" x="800" y="420">UNREGISTERED</text><text fill="#eeeeee" stroke="none" font-family="Arial" font-size="24px" font-style="normal" font-weight="normal" text-decoration="none" x="800" y="450">UNREGISTERED</text><text fill="#eeeeee" stroke="none" font-family="Arial" font-size="24px" font-style="normal" font-weight="normal" text-decoration="none" x="800" y="480">UNREGISTERED</text><text fill="#eeeeee" stroke="none" font-family="Arial" font-size="24px" font-style="normal" font-weight="normal" text-decoration="none" x="800" y="510">UNREGISTERED</text><text fill="#eeeeee" stroke="none" font-family="Arial" font-size="24px" font-style="normal" font-weight="normal" text-decoration="none" x="800" y="540">UNREGISTERED</text><g transform="translate(-238,-110) scale(1,1)"><rect fill="#C0C0C0" stroke="none" x="399" y="127" width="455" height="543" opacity="0.2"/></g><g transform="translate(-238,-110) scale(1,1)"><rect fill="#ffffff" stroke="none" x="392" y="120" width="455" height="543"/></g><g transform="translate(-238,-110) scale(1,1)"><path fill="none" stroke="#000000" d="M 392 120 L 847 120 L 847 663 L 392 663 L 392 120 Z Z" stroke-miterlimit="10"/></g><g transform="translate(-238,-110) scale(1,1)"><g><path fill="none" stroke="none"/><text fill="#000000" stroke="none" font-family="Arial" font-size="13px" font-style="normal" font-weight="bold" text-decoration="none" x="476.82373046875" y="137.5">Application de gestion de centre de recherche</text></g></g><g transform="translate(-238,-110) scale(1,1)"><path fill="#ffffff" stroke="none" d="M 264.40935031960225 297.68 C 264.40935031960225 292.886167936 268.29519264454774 289 273.088623046875 289 C 277.88205344920226 289 281.76789577414775 292.886167936 281.76789577414775 297.68 C 281.76789577414775 302.473832064 277.88205344920226 306.36 273.088623046875 306.36 C 268.29519264454774 306.36 264.40935031960225 302.473832064 264.40935031960225 297.68 Z"/></g><g transform="translate(-238,-110) scale(1,1)"><path fill="none" stroke="#000000" d="M 264.40935031960225 297.68 C 264.40935031960225 292.886167936 268.29519264454774 289 273.088623046875 289 C 277.88205344920226 289 281.76789577414775 292.886167936 281.76789577414775 297.68 C 281.76789577414775 302.473832064 277.88205344920226 306.36 273.088623046875 306.36 C 268.29519264454774 306.36 264.40935031960225 302.473832064 264.40935031960225 297.68 Z" stroke-miterlimit="10"/></g><g transform="translate(-238,-110) scale(1,1)"><path fill="none" stroke="#000000" d="M 273.088623046875 306.36 L 273.088623046875 323.64" stroke-miterlimit="10"/></g><g transform="translate(-238,-110) scale(1,1)"><path fill="none" stroke="#000000" d="M 263.89880486505683 312.84 L 282.27844122869317 312.84" stroke-miterlimit="10"/></g><g transform="translate(-238,-110) scale(1,1)"><path fill="none" stroke="#000000" d="M 273.088623046875 323.64 L 260.32498668323865 341" stroke-miterlimit="10"/></g><g transform="translate(-238,-110) scale(1,1)"><path fill="none" stroke="#000000" d="M 273.088623046875 323.64 L 285.85225941051135 341" stroke-miterlimit="10"/></g><g transform="translate(-238,-110) scale(1,1)"><g><path fill="none" stroke="none"/><text fill="#000000" stroke="none" font-family="Arial" font-size="13px" font-style="normal" font-weight="bold" text-decoration="none" x="252.8681640625" y="359.5">Admin</text></g></g><g transform="translate(-238,-110) scale(1,1)"><path fill="#C0C0C0" stroke="none" d="M 415 280 C 415 270.6111584 455.7420832 263 506 263 C 556.2579168 263 597 270.6111584 597 280 C 597 289.3888416 556.2579168 297 506 297 C 455.7420832 297 415 289.3888416 415 280 Z" opacity="0.2"/></g><g transform="translate(-238,-110) scale(1,1)"><path fill="#ffffff" stroke="none" d="M 408 273 C 408 263.6111584 448.7420832 256 499 256 C 549.2579168 256 590 263.6111584 590 273 C 590 282.3888416 549.2579168 290 499 290 C 448.7420832 290 408 282.3888416 408 273 Z"/></g><g transform="translate(-238,-110) scale(1,1)"><path fill="none" stroke="#000000" d="M 408 273 C 408 263.6111584 448.7420832 256 499 256 C 549.2579168 256 590 263.6111584 590 273 C 590 282.3888416 549.2579168 290 499 290 C 448.7420832 290 408 282.3888416 408 273 Z" stroke-miterlimit="10"/></g><g transform="translate(-238,-110) scale(1,1)"><g><path fill="none" stroke="none"/><text fill="#000000" stroke="none" font-family="Arial" font-size="13px" font-style="normal" font-weight="bold" text-decoration="none" x="439.02099609375" y="278">Gérer les employés</text></g></g><g transform="translate(-238,-110) scale(1,1)"><path fill="#C0C0C0" stroke="none" d="M 423 616 C 423 606.6111584 471.8009568 599 532 599 C 592.1990432 599 641 606.6111584 641 616 C 641 625.3888416 592.1990432 633 532 633 C 471.8009568 633 423 625.3888416 423 616 Z" opacity="0.2"/></g><g transform="translate(-238,-110) scale(1,1)"><path fill="#ffffff" stroke="none" d="M 416 609 C 416 599.6111584 464.8009568 592 525 592 C 585.1990432 592 634 599.6111584 634 609 C 634 618.3888416 585.1990432 626 525 626 C 464.8009568 626 416 618.3888416 416 609 Z"/></g><g transform="translate(-238,-110) scale(1,1)"><path fill="none" stroke="#000000" d="M 416 609 C 416 599.6111584 464.8009568 592 525 592 C 585.1990432 592 634 599.6111584 634 609 C 634 618.3888416 585.1990432 626 525 626 C 464.8009568 626 416 618.3888416 416 609 Z" stroke-miterlimit="10"/></g><g transform="translate(-238,-110) scale(1,1)"><g><path fill="none" stroke="none"/><text fill="#000000" stroke="none" font-family="Arial" font-size="13px" font-style="normal" font-weight="bold" text-decoration="none" x="452.3828125" y="614">Gérer les départements</text></g></g><g transform="translate(-238,-110) scale(1,1)"><path fill="#C0C0C0" stroke="none" d="M 567 368 C 567 358.6111584 626.9938368 351 701 351 C 775.0061632 351 835 358.6111584 835 368 C 835 377.3888416 775.0061632 385 701 385 C 626.9938368 385 567 377.3888416 567 368 Z" opacity="0.2"/></g><g transform="translate(-238,-110) scale(1,1)"><path fill="#ffffff" stroke="none" d="M 560 361 C 560 351.6111584 619.9938368 344 694 344 C 768.0061632 344 828 351.6111584 828 361 C 828 370.3888416 768.0061632 378 694 378 C 619.9938368 378 560 370.3888416 560 361 Z"/></g><g transform="translate(-238,-110) scale(1,1)"><path fill="none" stroke="#000000" d="M 560 361 C 560 351.6111584 619.9938368 344 694 344 C 768.0061632 344 828 351.6111584 828 361 C 828 370.3888416 768.0061632 378 694 378 C 619.9938368 378 560 370.3888416 560 361 Z" stroke-miterlimit="10"/></g><g transform="translate(-238,-110) scale(1,1)"><g><path fill="none" stroke="none"/><text fill="#000000" stroke="none" font-family="Arial" font-size="13px" font-style="normal" font-weight="bold" text-decoration="none" x="603.67919921875" y="366">Gérer les projet de recherche</text></g></g><g transform="translate(-238,-110) scale(1,1)"><path fill="#C0C0C0" stroke="none" d="M 607 520 C 607 510.6111584 644.8319344 503 691.5 503 C 738.1680656 503 776 510.6111584 776 520 C 776 529.3888416 738.1680656 537 691.5 537 C 644.8319344 537 607 529.3888416 607 520 Z" opacity="0.2"/></g><g transform="translate(-238,-110) scale(1,1)"><path fill="#ffffff" stroke="none" d="M 600 513 C 600 503.6111584 637.8319344 496 684.5 496 C 731.1680656 496 769 503.6111584 769 513 C 769 522.3888416 731.1680656 530 684.5 530 C 637.8319344 530 600 522.3888416 600 513 Z"/></g><g transform="translate(-238,-110) scale(1,1)"><path fill="none" stroke="#000000" d="M 600 513 C 600 503.6111584 637.8319344 496 684.5 496 C 731.1680656 496 769 503.6111584 769 513 C 769 522.3888416 731.1680656 530 684.5 530 C 637.8319344 530 600 522.3888416 600 513 Z" stroke-miterlimit="10"/></g><g transform="translate(-238,-110) scale(1,1)"><g><path fill="none" stroke="none"/><text fill="#000000" stroke="none" font-family="Arial" font-size="13px" font-style="normal" font-weight="bold" text-decoration="none" x="629.221435546875" y="518">Gérer les bureaux</text></g></g><g transform="translate(-238,-110) scale(1,1)"><path fill="#C0C0C0" stroke="none" d="M 391 432 C 391 422.6111584 455.0232736 415 534 415 C 612.9767264 415 677 422.6111584 677 432 C 677 441.3888416 612.9767264 449 534 449 C 455.0232736 449 391 441.3888416 391 432 Z" opacity="0.2"/></g><g transform="translate(-238,-110) scale(1,1)"><path fill="#ffffff" stroke="none" d="M 384 425 C 384 415.6111584 448.0232736 408 527 408 C 605.9767264 408 670 415.6111584 670 425 C 670 434.3888416 605.9767264 442 527 442 C 448.0232736 442 384 434.3888416 384 425 Z"/></g><g transform="translate(-238,-110) scale(1,1)"><path fill="none" stroke="#000000" d="M 384 425 C 384 415.6111584 448.0232736 408 527 408 C 605.9767264 408 670 415.6111584 670 425 C 670 434.3888416 605.9767264 442 527 442 C 448.0232736 442 384 434.3888416 384 425 Z" stroke-miterlimit="10"/></g><g transform="translate(-238,-110) scale(1,1)"><g><path fill="none" stroke="none"/><text fill="#000000" stroke="none" font-family="Arial" font-size="13px" font-style="normal" font-weight="bold" text-decoration="none" x="430.19189453125" y="430">Gérer les postes téléphoniques</text></g></g><g transform="translate(-238,-110) scale(1,1)"><path fill="#C0C0C0" stroke="none" d="M 679 272 C 679 262.6111584 714.1456432 255 757.5 255 C 800.8543568 255 836 262.6111584 836 272 C 836 281.3888416 800.8543568 289 757.5 289 C 714.1456432 289 679 281.3888416 679 272 Z" opacity="0.2"/></g><g transform="translate(-238,-110) scale(1,1)"><path fill="#ffffff" stroke="none" d="M 672 265 C 672 255.6111584 707.1456432 248 750.5 248 C 793.8543568 248 829 255.6111584 829 265 C 829 274.3888416 793.8543568 282 750.5 282 C 707.1456432 282 672 274.3888416 672 265 Z"/></g><g transform="translate(-238,-110) scale(1,1)"><path fill="none" stroke="#000000" d="M 672 265 C 672 255.6111584 707.1456432 248 750.5 248 C 793.8543568 248 829 255.6111584 829 265 C 829 274.3888416 793.8543568 282 750.5 282 C 707.1456432 282 672 274.3888416 672 265 Z" stroke-miterlimit="10"/></g><g transform="translate(-238,-110) scale(1,1)"><g><path fill="none" stroke="none"/><text fill="#000000" stroke="none" font-family="Arial" font-size="13px" font-style="normal" font-weight="bold" text-decoration="none" x="699.556884765625" y="270">Gérer les etudes</text></g></g><g transform="translate(-238,-110) scale(1,1)"><path fill="#ffffff" stroke="none" d="M 268.74479953835225 513.6800000000001 C 268.74479953835225 508.88616793600005 272.63064186329774 505 277.424072265625 505 C 282.21750266795226 505 286.10334499289775 508.88616793600005 286.10334499289775 513.6800000000001 C 286.10334499289775 518.473832064 282.21750266795226 522.36 277.424072265625 522.36 C 272.63064186329774 522.36 268.74479953835225 518.473832064 268.74479953835225 513.6800000000001 Z"/></g><g transform="translate(-238,-110) scale(1,1)"><path fill="none" stroke="#000000" d="M 268.74479953835225 513.6800000000001 C 268.74479953835225 508.88616793600005 272.63064186329774 505 277.424072265625 505 C 282.21750266795226 505 286.10334499289775 508.88616793600005 286.10334499289775 513.6800000000001 C 286.10334499289775 518.473832064 282.21750266795226 522.36 277.424072265625 522.36 C 272.63064186329774 522.36 268.74479953835225 518.473832064 268.74479953835225 513.6800000000001 Z" stroke-miterlimit="10"/></g><g transform="translate(-238,-110) scale(1,1)"><path fill="none" stroke="#000000" d="M 277.424072265625 522.36 L 277.424072265625 539.64" stroke-miterlimit="10"/></g><g transform="translate(-238,-110) scale(1,1)"><path fill="none" stroke="#000000" d="M 268.23425408380683 528.84 L 286.61389044744317 528.84" stroke-miterlimit="10"/></g><g transform="translate(-238,-110) scale(1,1)"><path fill="none" stroke="#000000" d="M 277.424072265625 539.64 L 264.66043590198865 557" stroke-miterlimit="10"/></g><g transform="translate(-238,-110) scale(1,1)"><path fill="none" stroke="#000000" d="M 277.424072265625 539.64 L 290.18770862926135 557" stroke-miterlimit="10"/></g><g transform="translate(-238,-110) scale(1,1)"><g><path fill="none" stroke="none"/><text fill="#000000" stroke="none" font-family="Arial" font-size="13px" font-style="normal" font-weight="bold" text-decoration="none" x="252.5" y="575.5">Director</text></g></g><g transform="translate(-238,-110) scale(1,1)"><path fill="none" stroke="#000000" d="M 276 503 L 274 368" stroke-miterlimit="10"/></g><g transform="translate(-238,-110) scale(1,1)"><path fill="#FFFFFF" stroke="none" d="M 282.71919501764603 388.19840682440713 L 274 368 L 265.8829714887625 388.4478323581684"/></g><g transform="translate(-238,-110) scale(1,1)"><path fill="none" stroke="#000000" d="M 282.71919501764603 388.19840682440713 L 274 368 L 265.8829714887625 388.4478323581684 L 282.71919501764603 388.19840682440713" stroke-miterlimit="10"/></g><g transform="translate(-238,-110) scale(1,1)"><path fill="none" stroke="#000000" d="M 539 291 L 654 343" stroke-miterlimit="10" stroke-dasharray="3"/></g><g transform="translate(-238,-110) scale(1,1)"><path fill="none" stroke="#000000" d="M 643.0056178727247 342.648486643996 L 654 343 L 646.4743553205556 334.9772403651394" stroke-miterlimit="10"/></g><g transform="translate(-238,-110) scale(1,1)"><g><path fill="none" stroke="none"/><text fill="#000000" stroke="none" font-family="Arial" font-size="13px" font-style="normal" font-weight="normal" text-decoration="none" x="614.5" y="315.5">+Affecter à un projet</text></g></g><g transform="translate(-238,-110) scale(1,1)"><g><path fill="none" stroke="none"/><text fill="#000000" stroke="none" font-family="Arial" font-size="13px" font-style="normal" font-weight="normal" text-decoration="none" x="604.5" y="304.5">«extend»</text></g></g><g transform="translate(-238,-110) scale(1,1)"><path fill="none" stroke="#000000" d="M 591 270 L 671 268" stroke-miterlimit="10" stroke-dasharray="3"/></g><g transform="translate(-238,-110) scale(1,1)"><path fill="none" stroke="#000000" d="M 660.9457045628213 272.4621904107656 L 671 268 L 660.73529441792 264.0457846147159" stroke-miterlimit="10"/></g><g transform="translate(-238,-110) scale(1,1)"><g><path fill="none" stroke="none"/><text fill="#000000" stroke="none" font-family="Arial" font-size="13px" font-style="normal" font-weight="normal" text-decoration="none" x="598.5" y="262.5">«extend»</text></g></g><g transform="translate(-238,-110) scale(1,1)"><path fill="none" stroke="#000000" d="M 555 591 L 654 531" stroke-miterlimit="10" stroke-dasharray="3"/></g><g transform="translate(-238,-110) scale(1,1)"><path fill="none" stroke="#000000" d="M 647.4907027758397 539.8673022756383 L 654 531 L 643.1271022221028 532.6673613619723" stroke-miterlimit="10"/></g><g transform="translate(-238,-110) scale(1,1)"><g><path fill="none" stroke="none"/><text fill="#000000" stroke="none" font-family="Arial" font-size="13px" font-style="normal" font-weight="normal" text-decoration="none" x="586.5" y="586.5">«extend»</text></g></g><g transform="translate(-238,-110) scale(1,1)"><path fill="none" stroke="#000000" d="M 299 321 L 424 291" stroke-miterlimit="10"/></g><g transform="translate(-238,-110) scale(1,1)"><path fill="none" stroke="#000000" d="M 308 551 L 457 591" stroke-miterlimit="10"/></g><g transform="translate(-238,-110) scale(1,1)"><path fill="none" stroke="#000000" d="M 524 407 L 502 291" stroke-miterlimit="10" stroke-dasharray="3"/></g><g transform="translate(-238,-110) scale(1,1)"><path fill="none" stroke="#000000" d="M 508.0294427809065 300.2003162854205 L 502 291 L 499.7578538426734 301.76906591163714" stroke-miterlimit="10"/></g><g transform="translate(-238,-110) scale(1,1)"><g><path fill="none" stroke="none"/><text fill="#000000" stroke="none" font-family="Arial" font-size="13px" font-style="normal" font-weight="normal" text-decoration="none" x="477.5" y="338.5">«include»</text></g></g><g transform="translate(-238,-110) scale(1,1)"><path fill="none" stroke="#000000" d="M 652 495 L 559 443" stroke-miterlimit="10" stroke-dasharray="3"/></g><g transform="translate(-238,-110) scale(1,1)"><path fill="none" stroke="#000000" d="M 569.9246239955053 444.2855312352602 L 559 443 L 565.8158678552555 451.63388356301465" stroke-miterlimit="10"/></g><g transform="translate(-238,-110) scale(1,1)"><g><path fill="none" stroke="none"/><text fill="#000000" stroke="none" font-family="Arial" font-size="13px" font-style="normal" font-weight="normal" text-decoration="none" x="562.5" y="499.5">«include»</text></g></g><g transform="translate(-238,-110) scale(1,1)"><path fill="#C0C0C0" stroke="none" d="M 871 328 C 871 318.6111584 893.6096176 311 921.5 311 C 949.3903824 311 972 318.6111584 972 328 C 972 337.3888416 949.3903824 345 921.5 345 C 893.6096176 345 871 337.3888416 871 328 Z" opacity="0.2"/></g><g transform="translate(-238,-110) scale(1,1)"><path fill="#ffffff" stroke="none" d="M 864 321 C 864 311.6111584 886.6096176 304 914.5 304 C 942.3903824 304 965 311.6111584 965 321 C 965 330.3888416 942.3903824 338 914.5 338 C 886.6096176 338 864 330.3888416 864 321 Z"/></g><g transform="translate(-238,-110) scale(1,1)"><path fill="none" stroke="#000000" d="M 864 321 C 864 311.6111584 886.6096176 304 914.5 304 C 942.3903824 304 965 311.6111584 965 321 C 965 330.3888416 942.3903824 338 914.5 338 C 886.6096176 338 864 330.3888416 864 321 Z" stroke-miterlimit="10"/></g><g transform="translate(-238,-110) scale(1,1)"><g><path fill="none" stroke="none"/><text fill="#000000" stroke="none" font-family="Arial" font-size="13px" font-style="normal" font-weight="bold" text-decoration="none" x="897.155029296875" y="326">Gerer</text></g></g><g transform="translate(-238,-110) scale(1,1)"><path fill="#C0C0C0" stroke="none" d="M 1023 208 C 1023 198.6111584 1045.6096176 191 1073.5 191 C 1101.3903824 191 1124 198.6111584 1124 208 C 1124 217.3888416 1101.3903824 225 1073.5 225 C 1045.6096176 225 1023 217.3888416 1023 208 Z" opacity="0.2"/></g><g transform="translate(-238,-110) scale(1,1)"><path fill="#ffffff" stroke="none" d="M 1016 201 C 1016 191.6111584 1038.6096176 184 1066.5 184 C 1094.3903824 184 1117 191.6111584 1117 201 C 1117 210.3888416 1094.3903824 218 1066.5 218 C 1038.6096176 218 1016 210.3888416 1016 201 Z"/></g><g transform="translate(-238,-110) scale(1,1)"><path fill="none" stroke="#000000" d="M 1016 201 C 1016 191.6111584 1038.6096176 184 1066.5 184 C 1094.3903824 184 1117 191.6111584 1117 201 C 1117 210.3888416 1094.3903824 218 1066.5 218 C 1038.6096176 218 1016 210.3888416 1016 201 Z" stroke-miterlimit="10"/></g><g transform="translate(-238,-110) scale(1,1)"><g><path fill="none" stroke="none"/><text fill="#000000" stroke="none" font-family="Arial" font-size="13px" font-style="normal" font-weight="bold" text-decoration="none" x="1043.75" y="206">Ajouter</text></g></g><g transform="translate(-238,-110) scale(1,1)"><path fill="#C0C0C0" stroke="none" d="M 1087 288 C 1087 278.6111584 1109.6096176 271 1137.5 271 C 1165.3903824 271 1188 278.6111584 1188 288 C 1188 297.3888416 1165.3903824 305 1137.5 305 C 1109.6096176 305 1087 297.3888416 1087 288 Z" opacity="0.2"/></g><g transform="translate(-238,-110) scale(1,1)"><path fill="#ffffff" stroke="none" d="M 1080 281 C 1080 271.6111584 1102.6096176 264 1130.5 264 C 1158.3903824 264 1181 271.6111584 1181 281 C 1181 290.3888416 1158.3903824 298 1130.5 298 C 1102.6096176 298 1080 290.3888416 1080 281 Z"/></g><g transform="translate(-238,-110) scale(1,1)"><path fill="none" stroke="#000000" d="M 1080 281 C 1080 271.6111584 1102.6096176 264 1130.5 264 C 1158.3903824 264 1181 271.6111584 1181 281 C 1181 290.3888416 1158.3903824 298 1130.5 298 C 1102.6096176 298 1080 290.3888416 1080 281 Z" stroke-miterlimit="10"/></g><g transform="translate(-238,-110) scale(1,1)"><g><path fill="none" stroke="none"/><text fill="#000000" stroke="none" font-family="Arial" font-size="13px" font-style="normal" font-weight="bold" text-decoration="none" x="1105.2236328125" y="286">Modifier</text></g></g><g transform="translate(-238,-110) scale(1,1)"><path fill="#C0C0C0" stroke="none" d="M 1095 384 C 1095 374.6111584 1120.5197664 367 1152 367 C 1183.4802336 367 1209 374.6111584 1209 384 C 1209 393.3888416 1183.4802336 401 1152 401 C 1120.5197664 401 1095 393.3888416 1095 384 Z" opacity="0.2"/></g><g transform="translate(-238,-110) scale(1,1)"><path fill="#ffffff" stroke="none" d="M 1088 377 C 1088 367.6111584 1113.5197664 360 1145 360 C 1176.4802336 360 1202 367.6111584 1202 377 C 1202 386.3888416 1176.4802336 394 1145 394 C 1113.5197664 394 1088 386.3888416 1088 377 Z"/></g><g transform="translate(-238,-110) scale(1,1)"><path fill="none" stroke="#000000" d="M 1088 377 C 1088 367.6111584 1113.5197664 360 1145 360 C 1176.4802336 360 1202 367.6111584 1202 377 C 1202 386.3888416 1176.4802336 394 1145 394 C 1113.5197664 394 1088 386.3888416 1088 377 Z" stroke-miterlimit="10"/></g><g transform="translate(-238,-110) scale(1,1)"><g><path fill="none" stroke="none"/><text fill="#000000" stroke="none" font-family="Arial" font-size="13px" font-style="normal" font-weight="bold" text-decoration="none" x="1109.23095703125" y="382">Rechercher</text></g></g><g transform="translate(-238,-110) scale(1,1)"><path fill="#C0C0C0" stroke="none" d="M 1031 456 C 1031 446.6111584 1054.505048 439 1083.5 439 C 1112.494952 439 1136 446.6111584 1136 456 C 1136 465.3888416 1112.494952 473 1083.5 473 C 1054.505048 473 1031 465.3888416 1031 456 Z" opacity="0.2"/></g><g transform="translate(-238,-110) scale(1,1)"><path fill="#ffffff" stroke="none" d="M 1024 449 C 1024 439.6111584 1047.505048 432 1076.5 432 C 1105.494952 432 1129 439.6111584 1129 449 C 1129 458.3888416 1105.494952 466 1076.5 466 C 1047.505048 466 1024 458.3888416 1024 449 Z"/></g><g transform="translate(-238,-110) scale(1,1)"><path fill="none" stroke="#000000" d="M 1024 449 C 1024 439.6111584 1047.505048 432 1076.5 432 C 1105.494952 432 1129 439.6111584 1129 449 C 1129 458.3888416 1105.494952 466 1076.5 466 C 1047.505048 466 1024 458.3888416 1024 449 Z" stroke-miterlimit="10"/></g><g transform="translate(-238,-110) scale(1,1)"><g><path fill="none" stroke="none"/><text fill="#000000" stroke="none" font-family="Arial" font-size="13px" font-style="normal" font-weight="bold" text-decoration="none" x="1043.99365234375" y="454">Supprimer</text></g></g><g transform="translate(-238,-110) scale(1,1)"><path fill="none" stroke="#000000" d="M 937 303 L 1043 219" stroke-miterlimit="10" stroke-dasharray="3"/></g><g transform="translate(-238,-110) scale(1,1)"><path fill="none" stroke="#000000" d="M 1037.6494996690585 228.61104293032733 L 1043 219 L 1032.420591302941 222.0126585635599" stroke-miterlimit="10"/></g><g transform="translate(-238,-110) scale(1,1)"><g><path fill="none" stroke="none"/><text fill="#000000" stroke="none" font-family="Arial" font-size="13px" font-style="normal" font-weight="normal" text-decoration="none" x="944.5" y="241.5">«extend»</text></g></g><g transform="translate(-238,-110) scale(1,1)"><path fill="none" stroke="#000000" d="M 966 311 L 1079 290" stroke-miterlimit="10" stroke-dasharray="3"/></g><g transform="translate(-238,-110) scale(1,1)"><path fill="none" stroke="#000000" d="M 1069.7775302426192 295.99550261230837 L 1079 290 L 1068.2392685414832 287.7181896490531" stroke-miterlimit="10"/></g><g transform="translate(-238,-110) scale(1,1)"><g><path fill="none" stroke="none"/><text fill="#000000" stroke="none" font-family="Arial" font-size="13px" font-style="normal" font-weight="normal" text-decoration="none" x="989.5" y="274.5">«extend»</text></g></g><g transform="translate(-238,-110) scale(1,1)"><path fill="none" stroke="#000000" d="M 966 334 L 1087 363" stroke-miterlimit="10" stroke-dasharray="3"/></g><g transform="translate(-238,-110) scale(1,1)"><path fill="none" stroke="#000000" d="M 1076.1360951223483 364.7249842924896 L 1087 363 L 1078.0983111001872 356.53780728150656" stroke-miterlimit="10"/></g><g transform="translate(-238,-110) scale(1,1)"><g><path fill="none" stroke="none"/><text fill="#000000" stroke="none" font-family="Arial" font-size="13px" font-style="normal" font-weight="normal" text-decoration="none" x="1006.5" y="322.5">«extend»</text></g></g><g transform="translate(-238,-110) scale(1,1)"><path fill="none" stroke="#000000" d="M 937 339 L 1053 431" stroke-miterlimit="10" stroke-dasharray="3"/></g><g transform="translate(-238,-110) scale(1,1)"><path fill="none" stroke="#000000" d="M 1042.4217957662524 427.9831149857636 L 1053 431 L 1047.6533399051675 421.3868202019142" stroke-miterlimit="10"/></g><g transform="translate(-238,-110) scale(1,1)"><g><path fill="none" stroke="none"/><text fill="#000000" stroke="none" font-family="Arial" font-size="13px" font-style="normal" font-weight="normal" text-decoration="none" x="986.5" y="365.5">«extend»</text></g></g><g transform="translate(-238,-110) scale(1,1)"><path fill="#C0C0C0" stroke="none" d="M 407 192 C 407 182.6111584 432.9674816 175 465 175 C 497.0325184 175 523 182.6111584 523 192 C 523 201.3888416 497.0325184 209 465 209 C 432.9674816 209 407 201.3888416 407 192 Z" opacity="0.2"/></g><g transform="translate(-238,-110) scale(1,1)"><path fill="#ffffff" stroke="none" d="M 400 185 C 400 175.6111584 425.9674816 168 458 168 C 490.0325184 168 516 175.6111584 516 185 C 516 194.3888416 490.0325184 202 458 202 C 425.9674816 202 400 194.3888416 400 185 Z"/></g><g transform="translate(-238,-110) scale(1,1)"><path fill="none" stroke="#000000" d="M 400 185 C 400 175.6111584 425.9674816 168 458 168 C 490.0325184 168 516 175.6111584 516 185 C 516 194.3888416 490.0325184 202 458 202 C 425.9674816 202 400 194.3888416 400 185 Z" stroke-miterlimit="10"/></g><g transform="translate(-238,-110) scale(1,1)"><g><path fill="none" stroke="none"/><text fill="#000000" stroke="none" font-family="Arial" font-size="13px" font-style="normal" font-weight="bold" text-decoration="none" x="421.529541015625" y="190">Authentifier</text></g></g><g transform="translate(-238,-110) scale(1,1)"><path fill="none" stroke="#000000" d="M 491 255 L 466 203" stroke-miterlimit="10" stroke-dasharray="3"/></g><g transform="translate(-238,-110) scale(1,1)"><path fill="none" stroke="#000000" d="M 474.1972685428715 210.3351747379357 L 466 203 L 466.609592375489 213.98309597225418" stroke-miterlimit="10"/></g><g transform="translate(-238,-110) scale(1,1)"><g><path fill="none" stroke="none"/><text fill="#000000" stroke="none" font-family="Arial" font-size="13px" font-style="normal" font-weight="normal" text-decoration="none" x="422.5" y="245.5">«include»</text></g></g></g></svg>